<mxfile host="app.diagrams.net" modified="2020-10-02T19:33:46.751Z" agent="5.0 (Macintosh; Intel Mac OS X 10_15_7) AppleWebKit/537.36 (KHTML, like Gecko) Chrome/85.0.4183.121 Safari/537.36" etag="HUjcVyGk51Unyr7fCWdr" version="13.7.7" type="github">
  <diagram id="jrDMd2VkX8Fc1aG8_HDz" name="Page-1">
    <mxGraphModel dx="4634" dy="3460" grid="1" gridSize="10" guides="1" tooltips="1" connect="1" arrows="1" fold="1" page="1" pageScale="1" pageWidth="850" pageHeight="1100" math="0" shadow="0">
      <root>
        <mxCell id="0" />
        <mxCell id="1" parent="0" />
        <mxCell id="HH7DKORKCEzCAmq62gNh-101" value="" style="group" vertex="1" connectable="0" parent="1">
          <mxGeometry x="-560" y="-950" width="3060" height="1697" as="geometry" />
        </mxCell>
        <mxCell id="9u0KMjUZt_Quz6K7kKN--258" style="edgeStyle=orthogonalEdgeStyle;rounded=0;orthogonalLoop=1;jettySize=auto;html=1;exitX=0.5;exitY=0;exitDx=0;exitDy=0;endArrow=none;endFill=0;strokeWidth=1;fontSize=18;fontColor=#CC0000;" parent="HH7DKORKCEzCAmq62gNh-101" source="dThmx-n3adpbhEAnUbLH-43" edge="1">
          <mxGeometry relative="1" as="geometry">
            <mxPoint x="245" y="690" as="targetPoint" />
          </mxGeometry>
        </mxCell>
        <mxCell id="9u0KMjUZt_Quz6K7kKN--260" value="IF_EN" style="edgeLabel;html=1;align=center;verticalAlign=middle;resizable=0;points=[];fontSize=18;fontColor=#CC0000;" parent="9u0KMjUZt_Quz6K7kKN--258" vertex="1" connectable="0">
          <mxGeometry x="0.8833" y="1" relative="1" as="geometry">
            <mxPoint x="1" y="-11.11" as="offset" />
          </mxGeometry>
        </mxCell>
        <mxCell id="dThmx-n3adpbhEAnUbLH-43" value="&lt;font style=&quot;font-size: 18px&quot;&gt;IRAM&lt;/font&gt;" style="rounded=0;whiteSpace=wrap;html=1;fillColor=none;fontSize=18;" parent="HH7DKORKCEzCAmq62gNh-101" vertex="1">
          <mxGeometry x="185" y="710" width="120" height="160" as="geometry" />
        </mxCell>
        <mxCell id="9u0KMjUZt_Quz6K7kKN--252" style="rounded=0;orthogonalLoop=1;jettySize=auto;html=1;exitX=0;exitY=0.25;exitDx=0;exitDy=0;endArrow=none;endFill=0;strokeWidth=1;fontSize=18;fontColor=#CC0000;" parent="HH7DKORKCEzCAmq62gNh-101" edge="1">
          <mxGeometry relative="1" as="geometry">
            <mxPoint x="720.0044444444443" y="630" as="targetPoint" />
            <mxPoint x="720.06" y="670" as="sourcePoint" />
          </mxGeometry>
        </mxCell>
        <mxCell id="9u0KMjUZt_Quz6K7kKN--253" style="rounded=0;orthogonalLoop=1;jettySize=auto;html=1;exitX=0;exitY=0.5;exitDx=0;exitDy=0;endArrow=none;endFill=0;strokeWidth=1;fontSize=18;fontColor=#CC0000;" parent="HH7DKORKCEzCAmq62gNh-101" edge="1">
          <mxGeometry relative="1" as="geometry">
            <mxPoint x="700.0044444444443" y="630" as="targetPoint" />
            <mxPoint x="700.06" y="670" as="sourcePoint" />
          </mxGeometry>
        </mxCell>
        <mxCell id="9u0KMjUZt_Quz6K7kKN--254" style="rounded=0;orthogonalLoop=1;jettySize=auto;html=1;exitX=0;exitY=0.75;exitDx=0;exitDy=0;endArrow=none;endFill=0;strokeWidth=1;fontSize=18;fontColor=#CC0000;" parent="HH7DKORKCEzCAmq62gNh-101" edge="1">
          <mxGeometry relative="1" as="geometry">
            <mxPoint x="680.0044444444444" y="630" as="targetPoint" />
            <mxPoint x="680.0600000000001" y="670" as="sourcePoint" />
          </mxGeometry>
        </mxCell>
        <mxCell id="9u0KMjUZt_Quz6K7kKN--255" value="RF_RD1" style="edgeLabel;html=1;align=center;verticalAlign=middle;resizable=0;points=[];fontSize=18;fontColor=#CC0000;horizontal=0;" parent="9u0KMjUZt_Quz6K7kKN--254" vertex="1" connectable="0">
          <mxGeometry x="0.8725" y="1" relative="1" as="geometry">
            <mxPoint y="-16.29" as="offset" />
          </mxGeometry>
        </mxCell>
        <mxCell id="6sOKHbeOXGZ0Ycy-URYJ-102" style="edgeStyle=orthogonalEdgeStyle;rounded=0;orthogonalLoop=1;jettySize=auto;html=1;exitX=0;exitY=0.25;exitDx=0;exitDy=0;endArrow=none;endFill=0;strokeColor=#000000;fontColor=#FF8000;" parent="HH7DKORKCEzCAmq62gNh-101" edge="1">
          <mxGeometry relative="1" as="geometry">
            <mxPoint x="740.0223463687153" y="641" as="targetPoint" />
            <mxPoint x="740" y="670" as="sourcePoint" />
            <Array as="points">
              <mxPoint x="740" y="661" />
              <mxPoint x="740" y="661" />
            </Array>
          </mxGeometry>
        </mxCell>
        <mxCell id="6sOKHbeOXGZ0Ycy-URYJ-103" style="edgeStyle=orthogonalEdgeStyle;rounded=0;orthogonalLoop=1;jettySize=auto;html=1;exitX=0;exitY=0.25;exitDx=0;exitDy=0;endArrow=none;endFill=0;strokeColor=#000000;fontColor=#FF8000;" parent="HH7DKORKCEzCAmq62gNh-101" edge="1">
          <mxGeometry relative="1" as="geometry">
            <mxPoint x="760.0223463687153" y="641" as="targetPoint" />
            <mxPoint x="760" y="670" as="sourcePoint" />
          </mxGeometry>
        </mxCell>
        <mxCell id="6sOKHbeOXGZ0Ycy-URYJ-114" style="edgeStyle=none;rounded=0;orthogonalLoop=1;jettySize=auto;html=1;exitX=1;exitY=0.75;exitDx=0;exitDy=0;entryX=0;entryY=0.851;entryDx=0;entryDy=0;entryPerimeter=0;endArrow=none;endFill=0;strokeColor=#000000;fontColor=#FF8000;" parent="HH7DKORKCEzCAmq62gNh-101" target="6sOKHbeOXGZ0Ycy-URYJ-94" edge="1">
          <mxGeometry relative="1" as="geometry">
            <mxPoint x="670" y="910" as="sourcePoint" />
            <mxPoint x="669.8799999999999" y="980.98" as="targetPoint" />
          </mxGeometry>
        </mxCell>
        <mxCell id="dThmx-n3adpbhEAnUbLH-52" value="REGISTER FILE" style="rounded=0;whiteSpace=wrap;html=1;rotation=90;fillColor=none;fontSize=18;" parent="HH7DKORKCEzCAmq62gNh-101" vertex="1">
          <mxGeometry x="595" y="730" width="240" height="120" as="geometry" />
        </mxCell>
        <mxCell id="9u0KMjUZt_Quz6K7kKN--267" style="edgeStyle=none;rounded=0;orthogonalLoop=1;jettySize=auto;html=1;exitX=0.5;exitY=0;exitDx=0;exitDy=0;endArrow=none;endFill=0;strokeWidth=1;fontSize=18;fontColor=#CC0000;" parent="HH7DKORKCEzCAmq62gNh-101" source="dThmx-n3adpbhEAnUbLH-60" edge="1">
          <mxGeometry relative="1" as="geometry">
            <mxPoint x="885.1428571428571" y="790" as="targetPoint" />
          </mxGeometry>
        </mxCell>
        <mxCell id="9u0KMjUZt_Quz6K7kKN--268" value="RF_RD2" style="edgeLabel;html=1;align=center;verticalAlign=middle;resizable=0;points=[];fontSize=18;fontColor=#CC0000;" parent="9u0KMjUZt_Quz6K7kKN--267" vertex="1" connectable="0">
          <mxGeometry x="0.6381" relative="1" as="geometry">
            <mxPoint y="-1" as="offset" />
          </mxGeometry>
        </mxCell>
        <mxCell id="dThmx-n3adpbhEAnUbLH-60" value="B" style="rounded=0;whiteSpace=wrap;html=1;fillColor=none;fontSize=18;" parent="HH7DKORKCEzCAmq62gNh-101" vertex="1">
          <mxGeometry x="855" y="820" width="60" height="60" as="geometry" />
        </mxCell>
        <mxCell id="dThmx-n3adpbhEAnUbLH-64" style="edgeStyle=orthogonalEdgeStyle;rounded=0;orthogonalLoop=1;jettySize=auto;html=1;exitX=0.75;exitY=0;exitDx=0;exitDy=0;entryX=0;entryY=0.5;entryDx=0;entryDy=0;endArrow=none;endFill=0;" parent="HH7DKORKCEzCAmq62gNh-101" source="dThmx-n3adpbhEAnUbLH-52" target="dThmx-n3adpbhEAnUbLH-60" edge="1">
          <mxGeometry relative="1" as="geometry" />
        </mxCell>
        <mxCell id="9u0KMjUZt_Quz6K7kKN--263" style="edgeStyle=orthogonalEdgeStyle;rounded=0;orthogonalLoop=1;jettySize=auto;html=1;exitX=0.5;exitY=0;exitDx=0;exitDy=0;endArrow=none;endFill=0;strokeWidth=1;fontSize=18;fontColor=#CC0000;" parent="HH7DKORKCEzCAmq62gNh-101" source="dThmx-n3adpbhEAnUbLH-61" edge="1">
          <mxGeometry relative="1" as="geometry">
            <mxPoint x="884.5" y="670" as="targetPoint" />
          </mxGeometry>
        </mxCell>
        <mxCell id="9u0KMjUZt_Quz6K7kKN--264" value="RF_RD1" style="edgeLabel;html=1;align=center;verticalAlign=middle;resizable=0;points=[];fontSize=18;fontColor=#CC0000;" parent="9u0KMjUZt_Quz6K7kKN--263" vertex="1" connectable="0">
          <mxGeometry x="0.8142" relative="1" as="geometry">
            <mxPoint as="offset" />
          </mxGeometry>
        </mxCell>
        <mxCell id="dThmx-n3adpbhEAnUbLH-61" value="A" style="rounded=0;whiteSpace=wrap;html=1;fillColor=none;fontSize=18;" parent="HH7DKORKCEzCAmq62gNh-101" vertex="1">
          <mxGeometry x="855" y="700" width="60" height="60" as="geometry" />
        </mxCell>
        <mxCell id="dThmx-n3adpbhEAnUbLH-65" style="edgeStyle=orthogonalEdgeStyle;rounded=0;orthogonalLoop=1;jettySize=auto;html=1;exitX=0.25;exitY=0;exitDx=0;exitDy=0;entryX=0;entryY=0.5;entryDx=0;entryDy=0;endArrow=none;endFill=0;" parent="HH7DKORKCEzCAmq62gNh-101" source="dThmx-n3adpbhEAnUbLH-52" target="dThmx-n3adpbhEAnUbLH-61" edge="1">
          <mxGeometry relative="1" as="geometry" />
        </mxCell>
        <mxCell id="9u0KMjUZt_Quz6K7kKN--269" style="edgeStyle=none;rounded=0;orthogonalLoop=1;jettySize=auto;html=1;endArrow=none;endFill=0;strokeWidth=1;fontSize=18;fontColor=#CC0000;" parent="HH7DKORKCEzCAmq62gNh-101" source="dThmx-n3adpbhEAnUbLH-62" edge="1">
          <mxGeometry relative="1" as="geometry">
            <mxPoint x="884.9999999999998" y="1176" as="targetPoint" />
          </mxGeometry>
        </mxCell>
        <mxCell id="9u0KMjUZt_Quz6K7kKN--270" value="RegIMM_LATCH_EN" style="edgeLabel;html=1;align=center;verticalAlign=middle;resizable=0;points=[];fontSize=18;fontColor=#CC0000;" parent="9u0KMjUZt_Quz6K7kKN--269" vertex="1" connectable="0">
          <mxGeometry x="0.6366" y="-1" relative="1" as="geometry">
            <mxPoint y="-5" as="offset" />
          </mxGeometry>
        </mxCell>
        <mxCell id="dThmx-n3adpbhEAnUbLH-62" value="IMM" style="rounded=0;whiteSpace=wrap;html=1;fillColor=none;fontSize=18;" parent="HH7DKORKCEzCAmq62gNh-101" vertex="1">
          <mxGeometry x="855" y="1201" width="60" height="60" as="geometry" />
        </mxCell>
        <mxCell id="dThmx-n3adpbhEAnUbLH-75" value="ZERO?" style="rounded=0;whiteSpace=wrap;html=1;fillColor=none;fontSize=18;" parent="HH7DKORKCEzCAmq62gNh-101" vertex="1">
          <mxGeometry x="1311.8600000000001" y="480" width="100" height="80" as="geometry" />
        </mxCell>
        <mxCell id="9u0KMjUZt_Quz6K7kKN--281" style="edgeStyle=none;rounded=0;orthogonalLoop=1;jettySize=auto;html=1;exitX=0.25;exitY=1;exitDx=0;exitDy=0;endArrow=none;endFill=0;strokeWidth=1;fontSize=18;fontColor=#CC0000;" parent="HH7DKORKCEzCAmq62gNh-101" source="dThmx-n3adpbhEAnUbLH-77" edge="1">
          <mxGeometry relative="1" as="geometry">
            <mxPoint x="1511.310344827586" y="590" as="targetPoint" />
          </mxGeometry>
        </mxCell>
        <mxCell id="9u0KMjUZt_Quz6K7kKN--282" value="EQ_COND" style="edgeLabel;html=1;align=center;verticalAlign=middle;resizable=0;points=[];fontSize=18;fontColor=#CC0000;horizontal=0;" parent="9u0KMjUZt_Quz6K7kKN--281" vertex="1" connectable="0">
          <mxGeometry x="0.2792" y="1" relative="1" as="geometry">
            <mxPoint x="13.8" y="30.7" as="offset" />
          </mxGeometry>
        </mxCell>
        <mxCell id="9u0KMjUZt_Quz6K7kKN--283" style="edgeStyle=none;rounded=0;orthogonalLoop=1;jettySize=auto;html=1;exitX=0.75;exitY=1;exitDx=0;exitDy=0;endArrow=none;endFill=0;strokeWidth=1;fontSize=18;fontColor=#CC0000;" parent="HH7DKORKCEzCAmq62gNh-101" source="dThmx-n3adpbhEAnUbLH-77" edge="1">
          <mxGeometry relative="1" as="geometry">
            <mxPoint x="1560.9655172413795" y="590" as="targetPoint" />
          </mxGeometry>
        </mxCell>
        <mxCell id="dThmx-n3adpbhEAnUbLH-77" value="BRANCH UNIT" style="rounded=0;whiteSpace=wrap;html=1;fillColor=none;fontSize=18;" parent="HH7DKORKCEzCAmq62gNh-101" vertex="1">
          <mxGeometry x="1486" y="480" width="100" height="80" as="geometry" />
        </mxCell>
        <mxCell id="dThmx-n3adpbhEAnUbLH-78" style="edgeStyle=orthogonalEdgeStyle;rounded=0;orthogonalLoop=1;jettySize=auto;html=1;exitX=1;exitY=0.5;exitDx=0;exitDy=0;entryX=0;entryY=0.5;entryDx=0;entryDy=0;endArrow=none;endFill=0;" parent="HH7DKORKCEzCAmq62gNh-101" source="dThmx-n3adpbhEAnUbLH-75" target="dThmx-n3adpbhEAnUbLH-77" edge="1">
          <mxGeometry relative="1" as="geometry" />
        </mxCell>
        <mxCell id="9u0KMjUZt_Quz6K7kKN--285" style="edgeStyle=none;rounded=0;orthogonalLoop=1;jettySize=auto;html=1;exitX=0.5;exitY=0;exitDx=0;exitDy=0;endArrow=none;endFill=0;strokeWidth=1;fontSize=18;fontColor=#CC0000;" parent="HH7DKORKCEzCAmq62gNh-101" source="dThmx-n3adpbhEAnUbLH-111" edge="1">
          <mxGeometry relative="1" as="geometry">
            <mxPoint x="1546.0588235294117" y="730" as="targetPoint" />
          </mxGeometry>
        </mxCell>
        <mxCell id="9u0KMjUZt_Quz6K7kKN--287" value="RegALU1_LATCH_EN" style="edgeLabel;html=1;align=center;verticalAlign=middle;resizable=0;points=[];fontSize=18;fontColor=#CC0000;" parent="9u0KMjUZt_Quz6K7kKN--285" vertex="1" connectable="0">
          <mxGeometry x="0.7497" y="-1" relative="1" as="geometry">
            <mxPoint as="offset" />
          </mxGeometry>
        </mxCell>
        <mxCell id="dThmx-n3adpbhEAnUbLH-111" value="ALU &lt;br style=&quot;font-size: 18px;&quot;&gt;REG1" style="rounded=0;whiteSpace=wrap;html=1;fillColor=none;fontSize=18;" parent="HH7DKORKCEzCAmq62gNh-101" vertex="1">
          <mxGeometry x="1516" y="761" width="60" height="60" as="geometry" />
        </mxCell>
        <mxCell id="9u0KMjUZt_Quz6K7kKN--247" style="edgeStyle=orthogonalEdgeStyle;rounded=0;orthogonalLoop=1;jettySize=auto;html=1;exitX=0.5;exitY=0;exitDx=0;exitDy=0;endArrow=none;endFill=0;strokeWidth=1;fontSize=18;fontColor=#CC0000;" parent="HH7DKORKCEzCAmq62gNh-101" source="dThmx-n3adpbhEAnUbLH-126" edge="1">
          <mxGeometry relative="1" as="geometry">
            <mxPoint x="375" y="300" as="targetPoint" />
          </mxGeometry>
        </mxCell>
        <mxCell id="9u0KMjUZt_Quz6K7kKN--249" value="IF_EN" style="edgeLabel;html=1;align=center;verticalAlign=middle;resizable=0;points=[];fontSize=18;fontColor=#CC0000;" parent="9u0KMjUZt_Quz6K7kKN--247" vertex="1" connectable="0">
          <mxGeometry x="0.8857" y="-1" relative="1" as="geometry">
            <mxPoint as="offset" />
          </mxGeometry>
        </mxCell>
        <mxCell id="dThmx-n3adpbhEAnUbLH-126" value="&lt;font style=&quot;font-size: 18px&quot;&gt;NPC&lt;/font&gt;" style="rounded=0;whiteSpace=wrap;html=1;fillColor=none;fontSize=18;" parent="HH7DKORKCEzCAmq62gNh-101" vertex="1">
          <mxGeometry x="345" y="330" width="60" height="60" as="geometry" />
        </mxCell>
        <mxCell id="9u0KMjUZt_Quz6K7kKN--196" style="edgeStyle=orthogonalEdgeStyle;rounded=0;orthogonalLoop=1;jettySize=auto;html=1;exitX=1;exitY=0.5;exitDx=0;exitDy=0;entryX=0.25;entryY=1;entryDx=0;entryDy=0;endArrow=none;endFill=0;" parent="HH7DKORKCEzCAmq62gNh-101" source="dThmx-n3adpbhEAnUbLH-129" target="dThmx-n3adpbhEAnUbLH-52" edge="1">
          <mxGeometry relative="1" as="geometry">
            <Array as="points">
              <mxPoint x="475" y="790" />
              <mxPoint x="475" y="730" />
            </Array>
          </mxGeometry>
        </mxCell>
        <mxCell id="9u0KMjUZt_Quz6K7kKN--197" style="edgeStyle=orthogonalEdgeStyle;rounded=0;orthogonalLoop=1;jettySize=auto;html=1;exitX=1;exitY=0.5;exitDx=0;exitDy=0;entryX=0.25;entryY=1;entryDx=0;entryDy=0;endArrow=none;endFill=0;" parent="HH7DKORKCEzCAmq62gNh-101" source="dThmx-n3adpbhEAnUbLH-129" target="dThmx-n3adpbhEAnUbLH-52" edge="1">
          <mxGeometry relative="1" as="geometry">
            <Array as="points">
              <mxPoint x="475" y="790" />
              <mxPoint x="475" y="700" />
              <mxPoint x="655" y="700" />
            </Array>
          </mxGeometry>
        </mxCell>
        <mxCell id="9u0KMjUZt_Quz6K7kKN--328" value="RS1" style="edgeLabel;html=1;align=center;verticalAlign=middle;resizable=0;points=[];fontSize=18;fontColor=#0000CC;" parent="9u0KMjUZt_Quz6K7kKN--197" vertex="1" connectable="0">
          <mxGeometry x="0.587" y="2" relative="1" as="geometry">
            <mxPoint x="6.2" y="-10" as="offset" />
          </mxGeometry>
        </mxCell>
        <mxCell id="9u0KMjUZt_Quz6K7kKN--243" style="edgeStyle=orthogonalEdgeStyle;rounded=0;orthogonalLoop=1;jettySize=auto;html=1;exitX=0.5;exitY=0;exitDx=0;exitDy=0;endArrow=none;endFill=0;strokeWidth=1;fontSize=18;fontColor=#CC0000;" parent="HH7DKORKCEzCAmq62gNh-101" source="dThmx-n3adpbhEAnUbLH-129" edge="1">
          <mxGeometry relative="1" as="geometry">
            <mxPoint x="374.57142857142867" y="730" as="targetPoint" />
          </mxGeometry>
        </mxCell>
        <mxCell id="9u0KMjUZt_Quz6K7kKN--245" value="IF_EN" style="edgeLabel;html=1;align=center;verticalAlign=middle;resizable=0;points=[];fontSize=18;fontColor=#CC0000;" parent="9u0KMjUZt_Quz6K7kKN--243" vertex="1" connectable="0">
          <mxGeometry x="0.6939" y="-1" relative="1" as="geometry">
            <mxPoint as="offset" />
          </mxGeometry>
        </mxCell>
        <mxCell id="dThmx-n3adpbhEAnUbLH-129" value="IR" style="rounded=0;whiteSpace=wrap;html=1;fillColor=none;fontSize=18;" parent="HH7DKORKCEzCAmq62gNh-101" vertex="1">
          <mxGeometry x="345" y="760" width="60" height="60" as="geometry" />
        </mxCell>
        <mxCell id="dThmx-n3adpbhEAnUbLH-46" style="edgeStyle=orthogonalEdgeStyle;rounded=0;orthogonalLoop=1;jettySize=auto;html=1;exitX=1;exitY=0.5;exitDx=0;exitDy=0;entryX=0;entryY=0.5;entryDx=0;entryDy=0;endArrow=none;endFill=0;" parent="HH7DKORKCEzCAmq62gNh-101" source="dThmx-n3adpbhEAnUbLH-43" target="dThmx-n3adpbhEAnUbLH-129" edge="1">
          <mxGeometry relative="1" as="geometry">
            <mxPoint x="595" y="790" as="targetPoint" />
          </mxGeometry>
        </mxCell>
        <mxCell id="9u0KMjUZt_Quz6K7kKN--44" style="edgeStyle=orthogonalEdgeStyle;rounded=0;orthogonalLoop=1;jettySize=auto;html=1;exitX=1;exitY=0.5;exitDx=0;exitDy=0;entryX=0;entryY=0.25;entryDx=0;entryDy=0;endArrow=none;endFill=0;" parent="HH7DKORKCEzCAmq62gNh-101" source="dThmx-n3adpbhEAnUbLH-130" target="dThmx-n3adpbhEAnUbLH-43" edge="1">
          <mxGeometry relative="1" as="geometry" />
        </mxCell>
        <mxCell id="9u0KMjUZt_Quz6K7kKN--45" style="edgeStyle=orthogonalEdgeStyle;rounded=0;orthogonalLoop=1;jettySize=auto;html=1;exitX=1;exitY=0.5;exitDx=0;exitDy=0;endArrow=none;endFill=0;" parent="HH7DKORKCEzCAmq62gNh-101" edge="1">
          <mxGeometry relative="1" as="geometry">
            <mxPoint x="185" y="400" as="targetPoint" />
            <mxPoint x="105" y="750" as="sourcePoint" />
            <Array as="points">
              <mxPoint x="145" y="750" />
              <mxPoint x="145" y="400" />
            </Array>
          </mxGeometry>
        </mxCell>
        <mxCell id="9u0KMjUZt_Quz6K7kKN--242" style="edgeStyle=orthogonalEdgeStyle;rounded=0;orthogonalLoop=1;jettySize=auto;html=1;exitX=0.5;exitY=0;exitDx=0;exitDy=0;endArrow=none;endFill=0;strokeWidth=1;fontSize=18;fontColor=#CC0000;" parent="HH7DKORKCEzCAmq62gNh-101" source="dThmx-n3adpbhEAnUbLH-130" edge="1">
          <mxGeometry relative="1" as="geometry">
            <mxPoint x="74.57142857142867" y="690" as="targetPoint" />
          </mxGeometry>
        </mxCell>
        <mxCell id="9u0KMjUZt_Quz6K7kKN--244" value="IF_EN" style="edgeLabel;html=1;align=center;verticalAlign=middle;resizable=0;points=[];fontSize=18;fontColor=#CC0000;" parent="9u0KMjUZt_Quz6K7kKN--242" vertex="1" connectable="0">
          <mxGeometry x="0.6939" y="-1" relative="1" as="geometry">
            <mxPoint as="offset" />
          </mxGeometry>
        </mxCell>
        <mxCell id="dThmx-n3adpbhEAnUbLH-130" value="PC" style="rounded=0;whiteSpace=wrap;html=1;fillColor=none;fontSize=18;" parent="HH7DKORKCEzCAmq62gNh-101" vertex="1">
          <mxGeometry x="45" y="720" width="60" height="60" as="geometry" />
        </mxCell>
        <mxCell id="HH7DKORKCEzCAmq62gNh-57" style="edgeStyle=none;rounded=0;orthogonalLoop=1;jettySize=auto;html=1;exitX=0;exitY=0.25;exitDx=0;exitDy=0;endArrow=none;endFill=0;strokeColor=#000000;fontColor=#0000CC;" edge="1" parent="HH7DKORKCEzCAmq62gNh-101">
          <mxGeometry relative="1" as="geometry">
            <mxPoint x="1964.87" y="913.240776699029" as="targetPoint" />
            <mxPoint x="1995.3599999999997" y="913.3250000000002" as="sourcePoint" />
          </mxGeometry>
        </mxCell>
        <mxCell id="HH7DKORKCEzCAmq62gNh-58" style="edgeStyle=none;rounded=0;orthogonalLoop=1;jettySize=auto;html=1;exitX=0;exitY=0.5;exitDx=0;exitDy=0;endArrow=none;endFill=0;strokeColor=#000000;fontColor=#0000CC;" edge="1" parent="HH7DKORKCEzCAmq62gNh-101">
          <mxGeometry relative="1" as="geometry">
            <mxPoint x="1964.87" y="944.12427184466" as="targetPoint" />
            <mxPoint x="1995.3599999999997" y="944.0500000000001" as="sourcePoint" />
          </mxGeometry>
        </mxCell>
        <mxCell id="HH7DKORKCEzCAmq62gNh-59" style="edgeStyle=none;rounded=0;orthogonalLoop=1;jettySize=auto;html=1;endArrow=none;endFill=0;strokeColor=#000000;fontColor=#0000CC;" edge="1" parent="HH7DKORKCEzCAmq62gNh-101" source="dThmx-n3adpbhEAnUbLH-144">
          <mxGeometry relative="1" as="geometry">
            <mxPoint x="2065.3599999999997" y="811" as="targetPoint" />
          </mxGeometry>
        </mxCell>
        <mxCell id="HH7DKORKCEzCAmq62gNh-95" style="edgeStyle=orthogonalEdgeStyle;rounded=0;orthogonalLoop=1;jettySize=auto;html=1;exitX=1;exitY=0.25;exitDx=0;exitDy=0;endArrow=none;endFill=0;strokeColor=#000000;fontColor=#0000CC;" edge="1" parent="HH7DKORKCEzCAmq62gNh-101">
          <mxGeometry relative="1" as="geometry">
            <mxPoint x="2170" y="870" as="targetPoint" />
            <mxPoint x="2135.3599999999997" y="869.7249999999999" as="sourcePoint" />
          </mxGeometry>
        </mxCell>
        <mxCell id="dThmx-n3adpbhEAnUbLH-144" value="DATA&lt;br&gt;CACHE" style="rounded=0;whiteSpace=wrap;html=1;fontSize=18;fillColor=none;" parent="HH7DKORKCEzCAmq62gNh-101" vertex="1">
          <mxGeometry x="1995.36" y="841" width="140" height="174.9" as="geometry" />
        </mxCell>
        <mxCell id="6sOKHbeOXGZ0Ycy-URYJ-71" style="edgeStyle=orthogonalEdgeStyle;rounded=0;orthogonalLoop=1;jettySize=auto;html=1;exitX=1;exitY=0.5;exitDx=0;exitDy=0;entryX=0;entryY=0.25;entryDx=0;entryDy=0;endArrow=none;endFill=0;strokeColor=#000000;" parent="HH7DKORKCEzCAmq62gNh-101" source="dThmx-n3adpbhEAnUbLH-111" target="dThmx-n3adpbhEAnUbLH-144" edge="1">
          <mxGeometry relative="1" as="geometry">
            <Array as="points">
              <mxPoint x="1720" y="791" />
              <mxPoint x="1720" y="861" />
              <mxPoint x="1995" y="861" />
            </Array>
            <mxPoint x="1857.62" y="1208.5" as="targetPoint" />
          </mxGeometry>
        </mxCell>
        <mxCell id="9u0KMjUZt_Quz6K7kKN--13" style="edgeStyle=orthogonalEdgeStyle;rounded=0;orthogonalLoop=1;jettySize=auto;html=1;exitX=0.5;exitY=0;exitDx=0;exitDy=0;entryX=0.75;entryY=1;entryDx=0;entryDy=0;endArrow=none;endFill=0;" parent="HH7DKORKCEzCAmq62gNh-101" source="9u0KMjUZt_Quz6K7kKN--11" target="dThmx-n3adpbhEAnUbLH-52" edge="1">
          <mxGeometry relative="1" as="geometry" />
        </mxCell>
        <mxCell id="9u0KMjUZt_Quz6K7kKN--26" style="edgeStyle=orthogonalEdgeStyle;rounded=0;orthogonalLoop=1;jettySize=auto;html=1;exitX=1;exitY=0.25;exitDx=0;exitDy=0;endArrow=none;endFill=0;" parent="HH7DKORKCEzCAmq62gNh-101" source="9u0KMjUZt_Quz6K7kKN--11" edge="1">
          <mxGeometry relative="1" as="geometry">
            <mxPoint x="619.2068965517242" y="920.0000000000002" as="targetPoint" />
          </mxGeometry>
        </mxCell>
        <mxCell id="9u0KMjUZt_Quz6K7kKN--29" value="J&amp;amp;L" style="edgeLabel;html=1;align=center;verticalAlign=middle;resizable=0;points=[];fontColor=#CC0000;fontSize=16;" parent="9u0KMjUZt_Quz6K7kKN--26" vertex="1" connectable="0">
          <mxGeometry x="0.8254" y="-1" relative="1" as="geometry">
            <mxPoint as="offset" />
          </mxGeometry>
        </mxCell>
        <mxCell id="9u0KMjUZt_Quz6K7kKN--194" style="edgeStyle=orthogonalEdgeStyle;rounded=0;orthogonalLoop=1;jettySize=auto;html=1;exitX=0.25;exitY=1;exitDx=0;exitDy=0;endArrow=none;endFill=0;" parent="HH7DKORKCEzCAmq62gNh-101" source="9u0KMjUZt_Quz6K7kKN--11" edge="1">
          <mxGeometry relative="1" as="geometry">
            <mxPoint x="580" y="864" as="targetPoint" />
          </mxGeometry>
        </mxCell>
        <mxCell id="9u0KMjUZt_Quz6K7kKN--195" value="&lt;font color=&quot;#0000cc&quot;&gt;1&#39;s&lt;/font&gt;" style="edgeLabel;html=1;align=center;verticalAlign=middle;resizable=0;points=[];fontSize=16;" parent="9u0KMjUZt_Quz6K7kKN--194" vertex="1" connectable="0">
          <mxGeometry x="1" y="-1" relative="1" as="geometry">
            <mxPoint x="-11" y="-14.46" as="offset" />
          </mxGeometry>
        </mxCell>
        <mxCell id="9u0KMjUZt_Quz6K7kKN--11" value="" style="shape=trapezoid;perimeter=trapezoidPerimeter;whiteSpace=wrap;html=1;fixedSize=1;rotation=90;fillColor=none;" parent="HH7DKORKCEzCAmq62gNh-101" vertex="1">
          <mxGeometry x="584.5" y="866" width="60.99" height="26.8" as="geometry" />
        </mxCell>
        <mxCell id="9u0KMjUZt_Quz6K7kKN--34" style="edgeStyle=orthogonalEdgeStyle;rounded=0;orthogonalLoop=1;jettySize=auto;html=1;exitX=1;exitY=0.25;exitDx=0;exitDy=0;endArrow=none;endFill=0;" parent="HH7DKORKCEzCAmq62gNh-101" source="9u0KMjUZt_Quz6K7kKN--36" edge="1">
          <mxGeometry relative="1" as="geometry">
            <mxPoint x="619.2068965517244" y="845.0000000000002" as="targetPoint" />
          </mxGeometry>
        </mxCell>
        <mxCell id="9u0KMjUZt_Quz6K7kKN--35" value="J&amp;amp;L" style="edgeLabel;html=1;align=center;verticalAlign=middle;resizable=0;points=[];fontSize=15;fontColor=#CC0000;" parent="9u0KMjUZt_Quz6K7kKN--34" vertex="1" connectable="0">
          <mxGeometry x="0.8254" y="-1" relative="1" as="geometry">
            <mxPoint as="offset" />
          </mxGeometry>
        </mxCell>
        <mxCell id="9u0KMjUZt_Quz6K7kKN--37" style="edgeStyle=orthogonalEdgeStyle;rounded=0;orthogonalLoop=1;jettySize=auto;html=1;exitX=0.5;exitY=0;exitDx=0;exitDy=0;entryX=0.5;entryY=1;entryDx=0;entryDy=0;endArrow=none;endFill=0;" parent="HH7DKORKCEzCAmq62gNh-101" source="9u0KMjUZt_Quz6K7kKN--36" target="dThmx-n3adpbhEAnUbLH-52" edge="1">
          <mxGeometry relative="1" as="geometry" />
        </mxCell>
        <mxCell id="9u0KMjUZt_Quz6K7kKN--36" value="" style="shape=trapezoid;perimeter=trapezoidPerimeter;whiteSpace=wrap;html=1;fixedSize=1;rotation=90;fillColor=none;" parent="HH7DKORKCEzCAmq62gNh-101" vertex="1">
          <mxGeometry x="584.5" y="791" width="60.99" height="26.8" as="geometry" />
        </mxCell>
        <mxCell id="9u0KMjUZt_Quz6K7kKN--49" value="" style="endArrow=none;dashed=1;html=1;strokeWidth=4;" parent="HH7DKORKCEzCAmq62gNh-101" edge="1">
          <mxGeometry width="50" height="50" relative="1" as="geometry">
            <mxPoint x="425" y="1481" as="sourcePoint" />
            <mxPoint x="425" y="61" as="targetPoint" />
          </mxGeometry>
        </mxCell>
        <mxCell id="9u0KMjUZt_Quz6K7kKN--271" style="edgeStyle=none;rounded=0;orthogonalLoop=1;jettySize=auto;html=1;exitX=0.5;exitY=0;exitDx=0;exitDy=0;endArrow=none;endFill=0;strokeWidth=1;fontSize=18;fontColor=#CC0000;" parent="HH7DKORKCEzCAmq62gNh-101" source="9u0KMjUZt_Quz6K7kKN--50" edge="1">
          <mxGeometry relative="1" as="geometry">
            <mxPoint x="885" y="1356" as="targetPoint" />
          </mxGeometry>
        </mxCell>
        <mxCell id="9u0KMjUZt_Quz6K7kKN--272" value="RegRD1_LATCH_EN" style="edgeLabel;html=1;align=center;verticalAlign=middle;resizable=0;points=[];fontSize=18;fontColor=#CC0000;" parent="9u0KMjUZt_Quz6K7kKN--271" vertex="1" connectable="0">
          <mxGeometry x="0.5034" y="1" relative="1" as="geometry">
            <mxPoint y="-4" as="offset" />
          </mxGeometry>
        </mxCell>
        <mxCell id="9u0KMjUZt_Quz6K7kKN--50" value="RD1" style="rounded=0;whiteSpace=wrap;html=1;fillColor=none;fontSize=18;" parent="HH7DKORKCEzCAmq62gNh-101" vertex="1">
          <mxGeometry x="855" y="1386" width="60" height="60" as="geometry" />
        </mxCell>
        <mxCell id="9u0KMjUZt_Quz6K7kKN--51" style="edgeStyle=orthogonalEdgeStyle;rounded=0;orthogonalLoop=1;jettySize=auto;html=1;exitX=1;exitY=0.5;exitDx=0;exitDy=0;entryX=0;entryY=0.5;entryDx=0;entryDy=0;endArrow=none;endFill=0;" parent="HH7DKORKCEzCAmq62gNh-101" source="dThmx-n3adpbhEAnUbLH-129" target="9u0KMjUZt_Quz6K7kKN--50" edge="1">
          <mxGeometry relative="1" as="geometry">
            <Array as="points">
              <mxPoint x="475" y="790" />
              <mxPoint x="475" y="1416" />
            </Array>
          </mxGeometry>
        </mxCell>
        <mxCell id="9u0KMjUZt_Quz6K7kKN--261" style="edgeStyle=orthogonalEdgeStyle;rounded=0;orthogonalLoop=1;jettySize=auto;html=1;exitX=0.5;exitY=0;exitDx=0;exitDy=0;endArrow=none;endFill=0;strokeWidth=1;fontSize=18;fontColor=#CC0000;" parent="HH7DKORKCEzCAmq62gNh-101" source="9u0KMjUZt_Quz6K7kKN--52" edge="1">
          <mxGeometry relative="1" as="geometry">
            <mxPoint x="885" y="310" as="targetPoint" />
          </mxGeometry>
        </mxCell>
        <mxCell id="9u0KMjUZt_Quz6K7kKN--262" value="RegNPC1_LATCH_EN" style="edgeLabel;html=1;align=center;verticalAlign=middle;resizable=0;points=[];fontSize=18;fontColor=#CC0000;" parent="9u0KMjUZt_Quz6K7kKN--261" vertex="1" connectable="0">
          <mxGeometry x="0.7884" relative="1" as="geometry">
            <mxPoint y="-10.09" as="offset" />
          </mxGeometry>
        </mxCell>
        <mxCell id="9u0KMjUZt_Quz6K7kKN--52" value="NPC1" style="rounded=0;whiteSpace=wrap;html=1;fillColor=none;fontSize=18;" parent="HH7DKORKCEzCAmq62gNh-101" vertex="1">
          <mxGeometry x="855" y="330" width="60" height="60" as="geometry" />
        </mxCell>
        <mxCell id="9u0KMjUZt_Quz6K7kKN--53" style="edgeStyle=orthogonalEdgeStyle;rounded=0;orthogonalLoop=1;jettySize=auto;html=1;exitX=1;exitY=0.5;exitDx=0;exitDy=0;endArrow=none;endFill=0;" parent="HH7DKORKCEzCAmq62gNh-101" source="dThmx-n3adpbhEAnUbLH-126" target="9u0KMjUZt_Quz6K7kKN--52" edge="1">
          <mxGeometry relative="1" as="geometry" />
        </mxCell>
        <mxCell id="9u0KMjUZt_Quz6K7kKN--54" value="" style="endArrow=none;dashed=1;html=1;strokeWidth=4;" parent="HH7DKORKCEzCAmq62gNh-101" edge="1">
          <mxGeometry width="50" height="50" relative="1" as="geometry">
            <mxPoint x="990" y="1481" as="sourcePoint" />
            <mxPoint x="990" y="61" as="targetPoint" />
          </mxGeometry>
        </mxCell>
        <mxCell id="9u0KMjUZt_Quz6K7kKN--275" style="edgeStyle=none;rounded=0;orthogonalLoop=1;jettySize=auto;html=1;exitX=1;exitY=0.25;exitDx=0;exitDy=0;endArrow=none;endFill=0;strokeWidth=1;fontSize=18;fontColor=#CC0000;" parent="HH7DKORKCEzCAmq62gNh-101" source="9u0KMjUZt_Quz6K7kKN--55" edge="1">
          <mxGeometry relative="1" as="geometry">
            <mxPoint x="1124.8" y="760" as="targetPoint" />
          </mxGeometry>
        </mxCell>
        <mxCell id="9u0KMjUZt_Quz6K7kKN--276" value="MuxA_SEL" style="edgeLabel;html=1;align=center;verticalAlign=middle;resizable=0;points=[];fontSize=18;fontColor=#CC0000;horizontal=0;" parent="9u0KMjUZt_Quz6K7kKN--275" vertex="1" connectable="0">
          <mxGeometry x="0.528" y="1" relative="1" as="geometry">
            <mxPoint x="10.48" y="26.71" as="offset" />
          </mxGeometry>
        </mxCell>
        <mxCell id="9u0KMjUZt_Quz6K7kKN--55" value="" style="shape=trapezoid;perimeter=trapezoidPerimeter;whiteSpace=wrap;html=1;fixedSize=1;rotation=90;fillColor=none;" parent="HH7DKORKCEzCAmq62gNh-101" vertex="1">
          <mxGeometry x="1080" y="694.33" width="78.75" height="31.8" as="geometry" />
        </mxCell>
        <mxCell id="9u0KMjUZt_Quz6K7kKN--57" style="rounded=0;orthogonalLoop=1;jettySize=auto;html=1;exitX=1;exitY=0.5;exitDx=0;exitDy=0;entryX=0.75;entryY=1;entryDx=0;entryDy=0;endArrow=none;endFill=0;" parent="HH7DKORKCEzCAmq62gNh-101" source="dThmx-n3adpbhEAnUbLH-61" target="9u0KMjUZt_Quz6K7kKN--55" edge="1">
          <mxGeometry relative="1" as="geometry" />
        </mxCell>
        <mxCell id="9u0KMjUZt_Quz6K7kKN--58" style="edgeStyle=orthogonalEdgeStyle;rounded=0;orthogonalLoop=1;jettySize=auto;html=1;entryX=0.25;entryY=1;entryDx=0;entryDy=0;endArrow=none;endFill=0;" parent="HH7DKORKCEzCAmq62gNh-101" source="9u0KMjUZt_Quz6K7kKN--52" target="9u0KMjUZt_Quz6K7kKN--55" edge="1">
          <mxGeometry relative="1" as="geometry">
            <Array as="points">
              <mxPoint x="1080" y="360" />
              <mxPoint x="1080" y="691" />
            </Array>
          </mxGeometry>
        </mxCell>
        <mxCell id="9u0KMjUZt_Quz6K7kKN--279" style="edgeStyle=none;rounded=0;orthogonalLoop=1;jettySize=auto;html=1;exitX=1;exitY=0.25;exitDx=0;exitDy=0;endArrow=none;endFill=0;strokeWidth=1;fontSize=18;fontColor=#CC0000;" parent="HH7DKORKCEzCAmq62gNh-101" source="9u0KMjUZt_Quz6K7kKN--59" edge="1">
          <mxGeometry relative="1" as="geometry">
            <mxPoint x="1124.8" y="920" as="targetPoint" />
          </mxGeometry>
        </mxCell>
        <mxCell id="9u0KMjUZt_Quz6K7kKN--280" value="MuxB_SEL" style="edgeLabel;html=1;align=center;verticalAlign=middle;resizable=0;points=[];fontSize=18;fontColor=#CC0000;horizontal=0;" parent="9u0KMjUZt_Quz6K7kKN--279" vertex="1" connectable="0">
          <mxGeometry x="0.3984" relative="1" as="geometry">
            <mxPoint x="11.49" y="21.14" as="offset" />
          </mxGeometry>
        </mxCell>
        <mxCell id="9u0KMjUZt_Quz6K7kKN--59" value="" style="shape=trapezoid;perimeter=trapezoidPerimeter;whiteSpace=wrap;html=1;fixedSize=1;rotation=90;fillColor=none;" parent="HH7DKORKCEzCAmq62gNh-101" vertex="1">
          <mxGeometry x="1080" y="854.1" width="78.75" height="31.8" as="geometry" />
        </mxCell>
        <mxCell id="9u0KMjUZt_Quz6K7kKN--96" style="edgeStyle=elbowEdgeStyle;rounded=0;orthogonalLoop=1;jettySize=auto;html=1;exitX=1;exitY=0.5;exitDx=0;exitDy=0;entryX=0.25;entryY=1;entryDx=0;entryDy=0;endArrow=none;endFill=0;" parent="HH7DKORKCEzCAmq62gNh-101" source="dThmx-n3adpbhEAnUbLH-60" target="9u0KMjUZt_Quz6K7kKN--59" edge="1">
          <mxGeometry relative="1" as="geometry" />
        </mxCell>
        <mxCell id="9u0KMjUZt_Quz6K7kKN--97" style="edgeStyle=elbowEdgeStyle;rounded=0;orthogonalLoop=1;jettySize=auto;html=1;exitX=1;exitY=0.5;exitDx=0;exitDy=0;entryX=0.75;entryY=1;entryDx=0;entryDy=0;endArrow=none;endFill=0;" parent="HH7DKORKCEzCAmq62gNh-101" source="dThmx-n3adpbhEAnUbLH-62" target="9u0KMjUZt_Quz6K7kKN--59" edge="1">
          <mxGeometry relative="1" as="geometry">
            <Array as="points">
              <mxPoint x="1080" y="941" />
              <mxPoint x="1070" y="941" />
              <mxPoint x="1050" y="1061" />
              <mxPoint x="1040" y="1061" />
            </Array>
            <mxPoint x="1103.4750000000004" y="1020.6875" as="targetPoint" />
          </mxGeometry>
        </mxCell>
        <mxCell id="9u0KMjUZt_Quz6K7kKN--73" style="edgeStyle=elbowEdgeStyle;rounded=0;orthogonalLoop=1;jettySize=auto;html=1;exitX=0.5;exitY=0;exitDx=0;exitDy=0;endArrow=none;endFill=0;" parent="HH7DKORKCEzCAmq62gNh-101" source="9u0KMjUZt_Quz6K7kKN--62" edge="1">
          <mxGeometry relative="1" as="geometry">
            <mxPoint x="1341.8600000000001" y="730" as="targetPoint" />
          </mxGeometry>
        </mxCell>
        <mxCell id="9u0KMjUZt_Quz6K7kKN--338" style="edgeStyle=none;rounded=0;orthogonalLoop=1;jettySize=auto;html=1;exitX=1;exitY=0.25;exitDx=0;exitDy=0;endArrow=none;endFill=0;strokeWidth=1;fontSize=18;fontColor=#0000CC;" parent="HH7DKORKCEzCAmq62gNh-101" source="9u0KMjUZt_Quz6K7kKN--62" edge="1">
          <mxGeometry relative="1" as="geometry">
            <mxPoint x="1261" y="750" as="targetPoint" />
          </mxGeometry>
        </mxCell>
        <mxCell id="9u0KMjUZt_Quz6K7kKN--339" value="&lt;font color=&quot;#009900&quot;&gt;FWD_A&lt;/font&gt;" style="edgeLabel;html=1;align=center;verticalAlign=middle;resizable=0;points=[];fontSize=18;fontColor=#0000CC;horizontal=0;" parent="9u0KMjUZt_Quz6K7kKN--338" vertex="1" connectable="0">
          <mxGeometry x="0.3581" y="-1" relative="1" as="geometry">
            <mxPoint x="19.85" y="10.12" as="offset" />
          </mxGeometry>
        </mxCell>
        <mxCell id="9u0KMjUZt_Quz6K7kKN--62" value="" style="shape=trapezoid;perimeter=trapezoidPerimeter;whiteSpace=wrap;html=1;fixedSize=1;rotation=90;fillColor=none;" parent="HH7DKORKCEzCAmq62gNh-101" vertex="1">
          <mxGeometry x="1211.8600000000001" y="673" width="88.75" height="30" as="geometry" />
        </mxCell>
        <mxCell id="9u0KMjUZt_Quz6K7kKN--63" style="edgeStyle=orthogonalEdgeStyle;rounded=0;orthogonalLoop=1;jettySize=auto;html=1;entryX=0.75;entryY=1;entryDx=0;entryDy=0;endArrow=none;endFill=0;" parent="HH7DKORKCEzCAmq62gNh-101" source="9u0KMjUZt_Quz6K7kKN--55" target="9u0KMjUZt_Quz6K7kKN--62" edge="1">
          <mxGeometry relative="1" as="geometry">
            <mxPoint x="1180.0049999999997" y="710.2299999999996" as="sourcePoint" />
          </mxGeometry>
        </mxCell>
        <mxCell id="9u0KMjUZt_Quz6K7kKN--90" style="edgeStyle=elbowEdgeStyle;rounded=0;orthogonalLoop=1;jettySize=auto;html=1;exitX=0.75;exitY=1;exitDx=0;exitDy=0;entryX=0.25;entryY=1;entryDx=0;entryDy=0;endArrow=none;endFill=0;" parent="HH7DKORKCEzCAmq62gNh-101" source="9u0KMjUZt_Quz6K7kKN--64" target="9u0KMjUZt_Quz6K7kKN--62" edge="1">
          <mxGeometry relative="1" as="geometry">
            <Array as="points">
              <mxPoint x="1210" y="760" />
            </Array>
          </mxGeometry>
        </mxCell>
        <mxCell id="9u0KMjUZt_Quz6K7kKN--99" style="edgeStyle=elbowEdgeStyle;rounded=0;orthogonalLoop=1;jettySize=auto;html=1;exitX=0.5;exitY=0;exitDx=0;exitDy=0;endArrow=none;endFill=0;" parent="HH7DKORKCEzCAmq62gNh-101" source="9u0KMjUZt_Quz6K7kKN--64" edge="1">
          <mxGeometry relative="1" as="geometry">
            <mxPoint x="1340" y="850" as="targetPoint" />
          </mxGeometry>
        </mxCell>
        <mxCell id="9u0KMjUZt_Quz6K7kKN--340" style="edgeStyle=none;rounded=0;orthogonalLoop=1;jettySize=auto;html=1;exitX=1;exitY=0.25;exitDx=0;exitDy=0;endArrow=none;endFill=0;strokeWidth=1;fontSize=18;fontColor=#0000CC;" parent="HH7DKORKCEzCAmq62gNh-101" source="9u0KMjUZt_Quz6K7kKN--64" edge="1">
          <mxGeometry relative="1" as="geometry">
            <mxPoint x="1261" y="960" as="targetPoint" />
          </mxGeometry>
        </mxCell>
        <mxCell id="9u0KMjUZt_Quz6K7kKN--341" value="&lt;font color=&quot;#009900&quot;&gt;FWD_B&lt;/font&gt;" style="edgeLabel;html=1;align=center;verticalAlign=middle;resizable=0;points=[];fontSize=18;fontColor=#0000CC;horizontal=0;" parent="9u0KMjUZt_Quz6K7kKN--340" vertex="1" connectable="0">
          <mxGeometry x="0.2974" y="3" relative="1" as="geometry">
            <mxPoint x="15.84" y="13.07" as="offset" />
          </mxGeometry>
        </mxCell>
        <mxCell id="9u0KMjUZt_Quz6K7kKN--64" value="" style="shape=trapezoid;perimeter=trapezoidPerimeter;whiteSpace=wrap;html=1;fixedSize=1;rotation=90;fillColor=none;" parent="HH7DKORKCEzCAmq62gNh-101" vertex="1">
          <mxGeometry x="1211.8600000000001" y="877" width="88.75" height="30" as="geometry" />
        </mxCell>
        <mxCell id="9u0KMjUZt_Quz6K7kKN--98" style="edgeStyle=elbowEdgeStyle;rounded=0;orthogonalLoop=1;jettySize=auto;html=1;exitX=0.5;exitY=0;exitDx=0;exitDy=0;entryX=0.25;entryY=1;entryDx=0;entryDy=0;endArrow=none;endFill=0;" parent="HH7DKORKCEzCAmq62gNh-101" source="9u0KMjUZt_Quz6K7kKN--59" target="9u0KMjUZt_Quz6K7kKN--64" edge="1">
          <mxGeometry relative="1" as="geometry" />
        </mxCell>
        <mxCell id="9u0KMjUZt_Quz6K7kKN--86" style="edgeStyle=elbowEdgeStyle;rounded=0;orthogonalLoop=1;jettySize=auto;html=1;exitX=0.5;exitY=1;exitDx=0;exitDy=0;entryX=0.5;entryY=1;entryDx=0;entryDy=0;endArrow=none;endFill=0;" parent="HH7DKORKCEzCAmq62gNh-101" source="9u0KMjUZt_Quz6K7kKN--62" target="9u0KMjUZt_Quz6K7kKN--64" edge="1">
          <mxGeometry relative="1" as="geometry">
            <Array as="points">
              <mxPoint x="1180" y="710" />
              <mxPoint x="1210" y="760" />
              <mxPoint x="1214.73" y="800" />
            </Array>
          </mxGeometry>
        </mxCell>
        <mxCell id="9u0KMjUZt_Quz6K7kKN--76" style="edgeStyle=elbowEdgeStyle;rounded=0;orthogonalLoop=1;jettySize=auto;html=1;entryX=0;entryY=0.5;entryDx=0;entryDy=0;endArrow=none;endFill=0;" parent="HH7DKORKCEzCAmq62gNh-101" source="9u0KMjUZt_Quz6K7kKN--75" target="dThmx-n3adpbhEAnUbLH-75" edge="1">
          <mxGeometry relative="1" as="geometry" />
        </mxCell>
        <mxCell id="9u0KMjUZt_Quz6K7kKN--87" style="edgeStyle=elbowEdgeStyle;rounded=0;orthogonalLoop=1;jettySize=auto;html=1;exitX=0.25;exitY=1;exitDx=0;exitDy=0;entryX=0.25;entryY=1;entryDx=0;entryDy=0;endArrow=none;endFill=0;" parent="HH7DKORKCEzCAmq62gNh-101" source="9u0KMjUZt_Quz6K7kKN--75" target="9u0KMjUZt_Quz6K7kKN--62" edge="1">
          <mxGeometry relative="1" as="geometry">
            <Array as="points">
              <mxPoint x="1210" y="570" />
              <mxPoint x="1170" y="600" />
            </Array>
          </mxGeometry>
        </mxCell>
        <mxCell id="9u0KMjUZt_Quz6K7kKN--342" style="edgeStyle=none;rounded=0;orthogonalLoop=1;jettySize=auto;html=1;exitX=1;exitY=0.25;exitDx=0;exitDy=0;endArrow=none;endFill=0;strokeWidth=1;fontSize=18;fontColor=#0000CC;" parent="HH7DKORKCEzCAmq62gNh-101" source="9u0KMjUZt_Quz6K7kKN--75" edge="1">
          <mxGeometry relative="1" as="geometry">
            <mxPoint x="1261" y="590" as="targetPoint" />
          </mxGeometry>
        </mxCell>
        <mxCell id="9u0KMjUZt_Quz6K7kKN--343" value="&lt;font color=&quot;#009900&quot;&gt;FWD_C&lt;/font&gt;" style="edgeLabel;html=1;align=center;verticalAlign=middle;resizable=0;points=[];fontSize=18;fontColor=#0000CC;horizontal=0;" parent="9u0KMjUZt_Quz6K7kKN--342" vertex="1" connectable="0">
          <mxGeometry x="0.1812" y="1" relative="1" as="geometry">
            <mxPoint x="17.81" y="16.1" as="offset" />
          </mxGeometry>
        </mxCell>
        <mxCell id="9u0KMjUZt_Quz6K7kKN--75" value="" style="shape=trapezoid;perimeter=trapezoidPerimeter;whiteSpace=wrap;html=1;fixedSize=1;rotation=90;fillColor=none;" parent="HH7DKORKCEzCAmq62gNh-101" vertex="1">
          <mxGeometry x="1211.8600000000001" y="505" width="88.75" height="30" as="geometry" />
        </mxCell>
        <mxCell id="9u0KMjUZt_Quz6K7kKN--82" style="edgeStyle=elbowEdgeStyle;rounded=0;orthogonalLoop=1;jettySize=auto;html=1;entryX=0.75;entryY=1;entryDx=0;entryDy=0;endArrow=none;endFill=0;" parent="HH7DKORKCEzCAmq62gNh-101" source="dThmx-n3adpbhEAnUbLH-61" target="9u0KMjUZt_Quz6K7kKN--75" edge="1">
          <mxGeometry relative="1" as="geometry">
            <Array as="points">
              <mxPoint x="1010" y="600" />
            </Array>
          </mxGeometry>
        </mxCell>
        <mxCell id="9u0KMjUZt_Quz6K7kKN--85" style="edgeStyle=elbowEdgeStyle;rounded=0;orthogonalLoop=1;jettySize=auto;html=1;exitX=0.5;exitY=1;exitDx=0;exitDy=0;entryX=0.5;entryY=1;entryDx=0;entryDy=0;endArrow=none;endFill=0;" parent="HH7DKORKCEzCAmq62gNh-101" source="9u0KMjUZt_Quz6K7kKN--62" target="9u0KMjUZt_Quz6K7kKN--75" edge="1">
          <mxGeometry relative="1" as="geometry">
            <Array as="points">
              <mxPoint x="1180" y="680" />
              <mxPoint x="1210" y="630" />
              <mxPoint x="1170" y="600" />
            </Array>
          </mxGeometry>
        </mxCell>
        <mxCell id="9u0KMjUZt_Quz6K7kKN--286" style="edgeStyle=none;rounded=0;orthogonalLoop=1;jettySize=auto;html=1;exitX=0.5;exitY=0;exitDx=0;exitDy=0;endArrow=none;endFill=0;strokeWidth=1;fontSize=18;fontColor=#CC0000;" parent="HH7DKORKCEzCAmq62gNh-101" edge="1">
          <mxGeometry relative="1" as="geometry">
            <mxPoint x="1545.86" y="941" as="targetPoint" />
            <mxPoint x="1545.86" y="970.9000000000001" as="sourcePoint" />
          </mxGeometry>
        </mxCell>
        <mxCell id="9u0KMjUZt_Quz6K7kKN--288" value="RegME_LATCH_EN" style="edgeLabel;html=1;align=center;verticalAlign=middle;resizable=0;points=[];fontSize=18;fontColor=#CC0000;" parent="9u0KMjUZt_Quz6K7kKN--286" vertex="1" connectable="0">
          <mxGeometry x="0.8369" relative="1" as="geometry">
            <mxPoint x="0.14" y="-2.4000000000000004" as="offset" />
          </mxGeometry>
        </mxCell>
        <mxCell id="9u0KMjUZt_Quz6K7kKN--93" value="ME" style="rounded=0;whiteSpace=wrap;html=1;fillColor=none;fontSize=18;" parent="HH7DKORKCEzCAmq62gNh-101" vertex="1">
          <mxGeometry x="1516" y="970.9" width="60" height="60" as="geometry" />
        </mxCell>
        <mxCell id="9u0KMjUZt_Quz6K7kKN--100" style="edgeStyle=elbowEdgeStyle;rounded=0;orthogonalLoop=1;jettySize=auto;html=1;entryX=0;entryY=0.5;entryDx=0;entryDy=0;endArrow=none;endFill=0;" parent="HH7DKORKCEzCAmq62gNh-101" source="dThmx-n3adpbhEAnUbLH-60" target="9u0KMjUZt_Quz6K7kKN--93" edge="1">
          <mxGeometry relative="1" as="geometry">
            <Array as="points">
              <mxPoint x="1020" y="920" />
              <mxPoint x="1010" y="970" />
            </Array>
          </mxGeometry>
        </mxCell>
        <mxCell id="9u0KMjUZt_Quz6K7kKN--126" style="edgeStyle=elbowEdgeStyle;rounded=0;orthogonalLoop=1;jettySize=auto;html=1;exitX=1;exitY=0.5;exitDx=0;exitDy=0;entryX=0;entryY=0.5;entryDx=0;entryDy=0;endArrow=none;endFill=0;" parent="HH7DKORKCEzCAmq62gNh-101" target="9u0KMjUZt_Quz6K7kKN--125" edge="1">
          <mxGeometry relative="1" as="geometry">
            <mxPoint x="1799.9999999998736" y="1416" as="sourcePoint" />
          </mxGeometry>
        </mxCell>
        <mxCell id="9u0KMjUZt_Quz6K7kKN--292" style="edgeStyle=none;rounded=0;orthogonalLoop=1;jettySize=auto;html=1;endArrow=none;endFill=0;strokeWidth=1;fontSize=18;fontColor=#CC0000;" parent="HH7DKORKCEzCAmq62gNh-101" source="9u0KMjUZt_Quz6K7kKN--94" edge="1">
          <mxGeometry relative="1" as="geometry">
            <mxPoint x="1546" y="1356.0000000000002" as="targetPoint" />
          </mxGeometry>
        </mxCell>
        <mxCell id="9u0KMjUZt_Quz6K7kKN--293" value="RegRD2_LATCH_EN" style="edgeLabel;html=1;align=center;verticalAlign=middle;resizable=0;points=[];fontSize=18;fontColor=#CC0000;" parent="9u0KMjUZt_Quz6K7kKN--292" vertex="1" connectable="0">
          <mxGeometry x="0.7981" relative="1" as="geometry">
            <mxPoint as="offset" />
          </mxGeometry>
        </mxCell>
        <mxCell id="9u0KMjUZt_Quz6K7kKN--94" value="RD2" style="rounded=0;whiteSpace=wrap;html=1;fillColor=none;fontSize=18;" parent="HH7DKORKCEzCAmq62gNh-101" vertex="1">
          <mxGeometry x="1516" y="1386" width="60" height="60" as="geometry" />
        </mxCell>
        <mxCell id="9u0KMjUZt_Quz6K7kKN--95" style="edgeStyle=elbowEdgeStyle;rounded=0;orthogonalLoop=1;jettySize=auto;html=1;exitX=1;exitY=0.5;exitDx=0;exitDy=0;entryX=0;entryY=0.5;entryDx=0;entryDy=0;endArrow=none;endFill=0;" parent="HH7DKORKCEzCAmq62gNh-101" source="9u0KMjUZt_Quz6K7kKN--50" target="9u0KMjUZt_Quz6K7kKN--94" edge="1">
          <mxGeometry relative="1" as="geometry" />
        </mxCell>
        <mxCell id="9u0KMjUZt_Quz6K7kKN--290" style="edgeStyle=none;rounded=0;orthogonalLoop=1;jettySize=auto;html=1;endArrow=none;endFill=0;strokeWidth=1;fontSize=18;fontColor=#CC0000;" parent="HH7DKORKCEzCAmq62gNh-101" source="9u0KMjUZt_Quz6K7kKN--101" edge="1">
          <mxGeometry relative="1" as="geometry">
            <mxPoint x="1546" y="300" as="targetPoint" />
          </mxGeometry>
        </mxCell>
        <mxCell id="9u0KMjUZt_Quz6K7kKN--291" value="RegNPC2_LATCH_EN" style="edgeLabel;html=1;align=center;verticalAlign=middle;resizable=0;points=[];fontSize=18;fontColor=#CC0000;" parent="9u0KMjUZt_Quz6K7kKN--290" vertex="1" connectable="0">
          <mxGeometry x="0.7592" relative="1" as="geometry">
            <mxPoint as="offset" />
          </mxGeometry>
        </mxCell>
        <mxCell id="9u0KMjUZt_Quz6K7kKN--101" value="NPC2" style="rounded=0;whiteSpace=wrap;html=1;fillColor=none;fontSize=18;" parent="HH7DKORKCEzCAmq62gNh-101" vertex="1">
          <mxGeometry x="1516" y="330" width="60" height="60" as="geometry" />
        </mxCell>
        <mxCell id="9u0KMjUZt_Quz6K7kKN--102" style="edgeStyle=elbowEdgeStyle;rounded=0;orthogonalLoop=1;jettySize=auto;html=1;entryX=0;entryY=0.5;entryDx=0;entryDy=0;endArrow=none;endFill=0;" parent="HH7DKORKCEzCAmq62gNh-101" source="9u0KMjUZt_Quz6K7kKN--52" target="9u0KMjUZt_Quz6K7kKN--101" edge="1">
          <mxGeometry relative="1" as="geometry" />
        </mxCell>
        <mxCell id="9u0KMjUZt_Quz6K7kKN--103" value="" style="endArrow=none;dashed=1;html=1;strokeWidth=4;" parent="HH7DKORKCEzCAmq62gNh-101" edge="1">
          <mxGeometry width="50" height="50" relative="1" as="geometry">
            <mxPoint x="1656" y="1481" as="sourcePoint" />
            <mxPoint x="1656" y="61" as="targetPoint" />
          </mxGeometry>
        </mxCell>
        <mxCell id="9u0KMjUZt_Quz6K7kKN--300" style="edgeStyle=none;rounded=0;orthogonalLoop=1;jettySize=auto;html=1;exitX=0.5;exitY=0;exitDx=0;exitDy=0;endArrow=none;endFill=0;strokeWidth=1;fontSize=18;fontColor=#CC0000;" parent="HH7DKORKCEzCAmq62gNh-101" source="9u0KMjUZt_Quz6K7kKN--125" edge="1">
          <mxGeometry relative="1" as="geometry">
            <mxPoint x="2510.8333333333335" y="1366" as="targetPoint" />
          </mxGeometry>
        </mxCell>
        <mxCell id="9u0KMjUZt_Quz6K7kKN--301" value="RegRD3_LATCH_EN" style="edgeLabel;html=1;align=center;verticalAlign=middle;resizable=0;points=[];fontSize=18;fontColor=#CC0000;" parent="9u0KMjUZt_Quz6K7kKN--300" vertex="1" connectable="0">
          <mxGeometry x="0.7839" y="-1" relative="1" as="geometry">
            <mxPoint y="-13" as="offset" />
          </mxGeometry>
        </mxCell>
        <mxCell id="9u0KMjUZt_Quz6K7kKN--125" value="RD3" style="rounded=0;whiteSpace=wrap;html=1;fillColor=none;fontSize=18;" parent="HH7DKORKCEzCAmq62gNh-101" vertex="1">
          <mxGeometry x="2481" y="1386" width="60" height="60" as="geometry" />
        </mxCell>
        <mxCell id="9u0KMjUZt_Quz6K7kKN--193" style="edgeStyle=orthogonalEdgeStyle;rounded=0;orthogonalLoop=1;jettySize=auto;html=1;exitX=0.75;exitY=1;exitDx=0;exitDy=0;entryX=1;entryY=0.5;entryDx=0;entryDy=0;endArrow=none;endFill=0;" parent="HH7DKORKCEzCAmq62gNh-101" source="9u0KMjUZt_Quz6K7kKN--11" target="9u0KMjUZt_Quz6K7kKN--125" edge="1">
          <mxGeometry relative="1" as="geometry">
            <Array as="points">
              <mxPoint x="580" y="895" />
              <mxPoint x="580" y="1481" />
              <mxPoint x="2600" y="1481" />
              <mxPoint x="2600" y="1416" />
            </Array>
          </mxGeometry>
        </mxCell>
        <mxCell id="9u0KMjUZt_Quz6K7kKN--327" value="RD" style="edgeLabel;html=1;align=center;verticalAlign=middle;resizable=0;points=[];fontSize=18;fontColor=#0000CC;" parent="9u0KMjUZt_Quz6K7kKN--193" vertex="1" connectable="0">
          <mxGeometry x="-0.9712" y="-2" relative="1" as="geometry">
            <mxPoint x="-8.03" y="-29.580000000000002" as="offset" />
          </mxGeometry>
        </mxCell>
        <mxCell id="9u0KMjUZt_Quz6K7kKN--294" style="edgeStyle=none;rounded=0;orthogonalLoop=1;jettySize=auto;html=1;exitX=0.5;exitY=0;exitDx=0;exitDy=0;endArrow=none;endFill=0;strokeWidth=1;fontSize=18;fontColor=#CC0000;" parent="HH7DKORKCEzCAmq62gNh-101" source="9u0KMjUZt_Quz6K7kKN--129" edge="1">
          <mxGeometry relative="1" as="geometry">
            <mxPoint x="2511.190476190476" y="912.9" as="targetPoint" />
          </mxGeometry>
        </mxCell>
        <mxCell id="9u0KMjUZt_Quz6K7kKN--295" value="RegLMD_LATCH_EN" style="edgeLabel;html=1;align=center;verticalAlign=middle;resizable=0;points=[];fontSize=18;fontColor=#CC0000;" parent="9u0KMjUZt_Quz6K7kKN--294" vertex="1" connectable="0">
          <mxGeometry x="0.4853" y="-1" relative="1" as="geometry">
            <mxPoint x="-1.14" y="-11.72" as="offset" />
          </mxGeometry>
        </mxCell>
        <mxCell id="9u0KMjUZt_Quz6K7kKN--129" value="LMD" style="rounded=0;whiteSpace=wrap;html=1;fillColor=none;fontSize=18;" parent="HH7DKORKCEzCAmq62gNh-101" vertex="1">
          <mxGeometry x="2481" y="934.9" width="60" height="60" as="geometry" />
        </mxCell>
        <mxCell id="9u0KMjUZt_Quz6K7kKN--147" style="edgeStyle=orthogonalEdgeStyle;rounded=0;orthogonalLoop=1;jettySize=auto;html=1;entryX=0;entryY=0.5;entryDx=0;entryDy=0;endArrow=none;endFill=0;exitX=0.5;exitY=0;exitDx=0;exitDy=0;" parent="HH7DKORKCEzCAmq62gNh-101" source="9u0KMjUZt_Quz6K7kKN--139" target="dThmx-n3adpbhEAnUbLH-130" edge="1">
          <mxGeometry relative="1" as="geometry">
            <Array as="points">
              <mxPoint x="1870" y="429" />
              <mxPoint x="1870" y="230" />
              <mxPoint x="20" y="230" />
              <mxPoint x="20" y="750" />
            </Array>
          </mxGeometry>
        </mxCell>
        <mxCell id="9u0KMjUZt_Quz6K7kKN--139" value="" style="shape=trapezoid;perimeter=trapezoidPerimeter;whiteSpace=wrap;html=1;fixedSize=1;rotation=90;fillColor=none;" parent="HH7DKORKCEzCAmq62gNh-101" vertex="1">
          <mxGeometry x="1788" y="413" width="78.75" height="31.8" as="geometry" />
        </mxCell>
        <mxCell id="9u0KMjUZt_Quz6K7kKN--140" style="edgeStyle=elbowEdgeStyle;rounded=0;orthogonalLoop=1;jettySize=auto;html=1;exitX=1;exitY=0.5;exitDx=0;exitDy=0;entryX=1;entryY=0.5;entryDx=0;entryDy=0;endArrow=none;endFill=0;" parent="HH7DKORKCEzCAmq62gNh-101" source="dThmx-n3adpbhEAnUbLH-77" target="9u0KMjUZt_Quz6K7kKN--139" edge="1">
          <mxGeometry relative="1" as="geometry">
            <Array as="points">
              <mxPoint x="1827" y="490" />
            </Array>
          </mxGeometry>
        </mxCell>
        <mxCell id="9u0KMjUZt_Quz6K7kKN--124" style="edgeStyle=elbowEdgeStyle;rounded=0;orthogonalLoop=1;jettySize=auto;html=1;exitX=1;exitY=0.5;exitDx=0;exitDy=0;endArrow=none;endFill=0;entryX=0.75;entryY=1;entryDx=0;entryDy=0;" parent="HH7DKORKCEzCAmq62gNh-101" source="dThmx-n3adpbhEAnUbLH-111" target="9u0KMjUZt_Quz6K7kKN--139" edge="1">
          <mxGeometry relative="1" as="geometry">
            <mxPoint x="1730" y="452.76410161513763" as="targetPoint" />
            <Array as="points">
              <mxPoint x="1720" y="591" />
              <mxPoint x="1760" y="741" />
              <mxPoint x="1770" y="721" />
              <mxPoint x="1730" y="601" />
              <mxPoint x="1720" y="490" />
              <mxPoint x="1716" y="510" />
              <mxPoint x="1636" y="500" />
            </Array>
          </mxGeometry>
        </mxCell>
        <mxCell id="9u0KMjUZt_Quz6K7kKN--123" style="edgeStyle=elbowEdgeStyle;rounded=0;orthogonalLoop=1;jettySize=auto;html=1;exitX=0.5;exitY=1;exitDx=0;exitDy=0;endArrow=none;endFill=0;entryX=0.75;entryY=1;entryDx=0;entryDy=0;" parent="HH7DKORKCEzCAmq62gNh-101" source="9u0KMjUZt_Quz6K7kKN--75" target="9u0KMjUZt_Quz6K7kKN--139" edge="1">
          <mxGeometry relative="1" as="geometry">
            <mxPoint x="1680" y="410" as="targetPoint" />
            <Array as="points">
              <mxPoint x="1180" y="440" />
            </Array>
          </mxGeometry>
        </mxCell>
        <mxCell id="9u0KMjUZt_Quz6K7kKN--142" style="edgeStyle=elbowEdgeStyle;rounded=0;orthogonalLoop=1;jettySize=auto;html=1;exitX=1;exitY=0.5;exitDx=0;exitDy=0;entryX=0.25;entryY=1;entryDx=0;entryDy=0;endArrow=none;endFill=0;" parent="HH7DKORKCEzCAmq62gNh-101" source="9u0KMjUZt_Quz6K7kKN--101" target="9u0KMjUZt_Quz6K7kKN--139" edge="1">
          <mxGeometry relative="1" as="geometry">
            <Array as="points">
              <mxPoint x="1720" y="380" />
            </Array>
          </mxGeometry>
        </mxCell>
        <mxCell id="9u0KMjUZt_Quz6K7kKN--298" style="edgeStyle=none;rounded=0;orthogonalLoop=1;jettySize=auto;html=1;exitX=0.5;exitY=0;exitDx=0;exitDy=0;endArrow=none;endFill=0;strokeWidth=1;fontSize=18;fontColor=#CC0000;" parent="HH7DKORKCEzCAmq62gNh-101" source="9u0KMjUZt_Quz6K7kKN--143" edge="1">
          <mxGeometry relative="1" as="geometry">
            <mxPoint x="2511.190476190476" y="300" as="targetPoint" />
          </mxGeometry>
        </mxCell>
        <mxCell id="9u0KMjUZt_Quz6K7kKN--299" value="RegNPC3_LATCH_EN" style="edgeLabel;html=1;align=center;verticalAlign=middle;resizable=0;points=[];fontSize=18;fontColor=#CC0000;" parent="9u0KMjUZt_Quz6K7kKN--298" vertex="1" connectable="0">
          <mxGeometry x="0.6538" relative="1" as="geometry">
            <mxPoint x="-0.16" y="-10.24" as="offset" />
          </mxGeometry>
        </mxCell>
        <mxCell id="HH7DKORKCEzCAmq62gNh-84" style="edgeStyle=orthogonalEdgeStyle;rounded=0;orthogonalLoop=1;jettySize=auto;html=1;endArrow=none;endFill=0;strokeColor=#000000;fontColor=#0000CC;" edge="1" parent="HH7DKORKCEzCAmq62gNh-101" source="9u0KMjUZt_Quz6K7kKN--143">
          <mxGeometry relative="1" as="geometry">
            <mxPoint x="2710" y="360" as="targetPoint" />
          </mxGeometry>
        </mxCell>
        <mxCell id="9u0KMjUZt_Quz6K7kKN--143" value="NPC3" style="rounded=0;whiteSpace=wrap;html=1;fillColor=none;fontSize=18;" parent="HH7DKORKCEzCAmq62gNh-101" vertex="1">
          <mxGeometry x="2481" y="330" width="60" height="60" as="geometry" />
        </mxCell>
        <mxCell id="9u0KMjUZt_Quz6K7kKN--148" value="" style="endArrow=none;dashed=1;html=1;strokeWidth=4;" parent="HH7DKORKCEzCAmq62gNh-101" edge="1">
          <mxGeometry width="50" height="50" relative="1" as="geometry">
            <mxPoint x="2623.75" y="1481" as="sourcePoint" />
            <mxPoint x="2623.75" y="61" as="targetPoint" />
          </mxGeometry>
        </mxCell>
        <mxCell id="9u0KMjUZt_Quz6K7kKN--162" value="" style="group;fontSize=18;" parent="HH7DKORKCEzCAmq62gNh-101" vertex="1" connectable="0">
          <mxGeometry x="155" y="295" width="100" height="130" as="geometry" />
        </mxCell>
        <mxCell id="dThmx-n3adpbhEAnUbLH-48" style="edgeStyle=orthogonalEdgeStyle;rounded=0;orthogonalLoop=1;jettySize=auto;html=1;endArrow=none;endFill=0;" parent="9u0KMjUZt_Quz6K7kKN--162" edge="1">
          <mxGeometry relative="1" as="geometry">
            <mxPoint y="25" as="targetPoint" />
            <mxPoint x="30" y="25" as="sourcePoint" />
          </mxGeometry>
        </mxCell>
        <mxCell id="9u0KMjUZt_Quz6K7kKN--46" value="4" style="edgeLabel;html=1;align=center;verticalAlign=middle;resizable=0;points=[];fontSize=18;" parent="dThmx-n3adpbhEAnUbLH-48" vertex="1" connectable="0">
          <mxGeometry x="0.9255" y="-2" relative="1" as="geometry">
            <mxPoint x="-10.59" as="offset" />
          </mxGeometry>
        </mxCell>
        <mxCell id="dThmx-n3adpbhEAnUbLH-131" value="" style="group;rounded=0;connectable=1;" parent="9u0KMjUZt_Quz6K7kKN--162" vertex="1" connectable="0">
          <mxGeometry x="30" width="70" height="130" as="geometry" />
        </mxCell>
        <mxCell id="dThmx-n3adpbhEAnUbLH-132" value="" style="group" parent="dThmx-n3adpbhEAnUbLH-131" vertex="1" connectable="0">
          <mxGeometry width="70" height="130" as="geometry" />
        </mxCell>
        <mxCell id="dThmx-n3adpbhEAnUbLH-133" value="" style="endArrow=none;html=1;" parent="dThmx-n3adpbhEAnUbLH-132" edge="1">
          <mxGeometry width="50" height="50" relative="1" as="geometry">
            <mxPoint y="43.333333333333336" as="sourcePoint" />
            <mxPoint as="targetPoint" />
          </mxGeometry>
        </mxCell>
        <mxCell id="dThmx-n3adpbhEAnUbLH-134" value="" style="endArrow=none;html=1;" parent="dThmx-n3adpbhEAnUbLH-132" edge="1">
          <mxGeometry width="50" height="50" relative="1" as="geometry">
            <mxPoint y="130" as="sourcePoint" />
            <mxPoint y="86.66666666666667" as="targetPoint" />
          </mxGeometry>
        </mxCell>
        <mxCell id="dThmx-n3adpbhEAnUbLH-135" value="" style="endArrow=none;html=1;" parent="dThmx-n3adpbhEAnUbLH-132" edge="1">
          <mxGeometry width="50" height="50" relative="1" as="geometry">
            <mxPoint x="70" y="93.88888888888889" as="sourcePoint" />
            <mxPoint x="70" y="36.11111111111111" as="targetPoint" />
          </mxGeometry>
        </mxCell>
        <mxCell id="dThmx-n3adpbhEAnUbLH-136" value="" style="endArrow=none;html=1;" parent="dThmx-n3adpbhEAnUbLH-132" edge="1">
          <mxGeometry width="50" height="50" relative="1" as="geometry">
            <mxPoint as="sourcePoint" />
            <mxPoint x="70" y="36.11111111111111" as="targetPoint" />
          </mxGeometry>
        </mxCell>
        <mxCell id="dThmx-n3adpbhEAnUbLH-137" value="" style="endArrow=none;html=1;" parent="dThmx-n3adpbhEAnUbLH-132" edge="1">
          <mxGeometry width="50" height="50" relative="1" as="geometry">
            <mxPoint y="130" as="sourcePoint" />
            <mxPoint x="70" y="93.88888888888889" as="targetPoint" />
          </mxGeometry>
        </mxCell>
        <mxCell id="dThmx-n3adpbhEAnUbLH-138" value="" style="endArrow=none;html=1;" parent="dThmx-n3adpbhEAnUbLH-132" edge="1">
          <mxGeometry width="50" height="50" relative="1" as="geometry">
            <mxPoint y="86.66666666666667" as="sourcePoint" />
            <mxPoint x="35" y="65" as="targetPoint" />
          </mxGeometry>
        </mxCell>
        <mxCell id="dThmx-n3adpbhEAnUbLH-139" value="" style="endArrow=none;html=1;" parent="dThmx-n3adpbhEAnUbLH-132" edge="1">
          <mxGeometry width="50" height="50" relative="1" as="geometry">
            <mxPoint y="43.333333333333336" as="sourcePoint" />
            <mxPoint x="35" y="65" as="targetPoint" />
          </mxGeometry>
        </mxCell>
        <mxCell id="9u0KMjUZt_Quz6K7kKN--47" value="&lt;font style=&quot;font-size: 21px&quot;&gt;+&lt;/font&gt;" style="text;html=1;align=center;verticalAlign=middle;resizable=0;points=[];autosize=1;" parent="dThmx-n3adpbhEAnUbLH-132" vertex="1">
          <mxGeometry x="35" y="55" width="30" height="20" as="geometry" />
        </mxCell>
        <mxCell id="dThmx-n3adpbhEAnUbLH-140" style="edgeStyle=orthogonalEdgeStyle;rounded=0;orthogonalLoop=1;jettySize=auto;html=1;exitX=0;exitY=0.5;exitDx=0;exitDy=0;endArrow=none;endFill=0;" parent="HH7DKORKCEzCAmq62gNh-101" source="dThmx-n3adpbhEAnUbLH-126" target="dThmx-n3adpbhEAnUbLH-131" edge="1">
          <mxGeometry relative="1" as="geometry" />
        </mxCell>
        <mxCell id="9u0KMjUZt_Quz6K7kKN--163" value="" style="group;fontSize=18;" parent="HH7DKORKCEzCAmq62gNh-101" vertex="1" connectable="0">
          <mxGeometry x="2680" y="250" width="100" height="130" as="geometry" />
        </mxCell>
        <mxCell id="9u0KMjUZt_Quz6K7kKN--164" style="edgeStyle=orthogonalEdgeStyle;rounded=0;orthogonalLoop=1;jettySize=auto;html=1;endArrow=none;endFill=0;" parent="9u0KMjUZt_Quz6K7kKN--163" edge="1">
          <mxGeometry relative="1" as="geometry">
            <mxPoint y="25" as="targetPoint" />
            <mxPoint x="30" y="25" as="sourcePoint" />
          </mxGeometry>
        </mxCell>
        <mxCell id="9u0KMjUZt_Quz6K7kKN--165" value="4" style="edgeLabel;html=1;align=center;verticalAlign=middle;resizable=0;points=[];fontSize=18;" parent="9u0KMjUZt_Quz6K7kKN--164" vertex="1" connectable="0">
          <mxGeometry x="0.9255" y="-2" relative="1" as="geometry">
            <mxPoint x="-10.59" as="offset" />
          </mxGeometry>
        </mxCell>
        <mxCell id="9u0KMjUZt_Quz6K7kKN--166" value="" style="group;rounded=0;connectable=1;" parent="9u0KMjUZt_Quz6K7kKN--163" vertex="1" connectable="0">
          <mxGeometry x="30" width="70" height="130" as="geometry" />
        </mxCell>
        <mxCell id="9u0KMjUZt_Quz6K7kKN--167" value="" style="group" parent="9u0KMjUZt_Quz6K7kKN--166" vertex="1" connectable="0">
          <mxGeometry width="70" height="130" as="geometry" />
        </mxCell>
        <mxCell id="9u0KMjUZt_Quz6K7kKN--168" value="" style="endArrow=none;html=1;" parent="9u0KMjUZt_Quz6K7kKN--167" edge="1">
          <mxGeometry width="50" height="50" relative="1" as="geometry">
            <mxPoint y="43.333333333333336" as="sourcePoint" />
            <mxPoint as="targetPoint" />
          </mxGeometry>
        </mxCell>
        <mxCell id="9u0KMjUZt_Quz6K7kKN--169" value="" style="endArrow=none;html=1;" parent="9u0KMjUZt_Quz6K7kKN--167" edge="1">
          <mxGeometry width="50" height="50" relative="1" as="geometry">
            <mxPoint y="130" as="sourcePoint" />
            <mxPoint y="86.66666666666667" as="targetPoint" />
          </mxGeometry>
        </mxCell>
        <mxCell id="9u0KMjUZt_Quz6K7kKN--170" value="" style="endArrow=none;html=1;" parent="9u0KMjUZt_Quz6K7kKN--167" edge="1">
          <mxGeometry width="50" height="50" relative="1" as="geometry">
            <mxPoint x="70" y="93.88888888888889" as="sourcePoint" />
            <mxPoint x="70" y="36.11111111111111" as="targetPoint" />
          </mxGeometry>
        </mxCell>
        <mxCell id="9u0KMjUZt_Quz6K7kKN--171" value="" style="endArrow=none;html=1;" parent="9u0KMjUZt_Quz6K7kKN--167" edge="1">
          <mxGeometry width="50" height="50" relative="1" as="geometry">
            <mxPoint as="sourcePoint" />
            <mxPoint x="70" y="36.11111111111111" as="targetPoint" />
          </mxGeometry>
        </mxCell>
        <mxCell id="9u0KMjUZt_Quz6K7kKN--172" value="" style="endArrow=none;html=1;" parent="9u0KMjUZt_Quz6K7kKN--167" edge="1">
          <mxGeometry width="50" height="50" relative="1" as="geometry">
            <mxPoint y="130" as="sourcePoint" />
            <mxPoint x="70" y="93.88888888888889" as="targetPoint" />
          </mxGeometry>
        </mxCell>
        <mxCell id="9u0KMjUZt_Quz6K7kKN--173" value="" style="endArrow=none;html=1;" parent="9u0KMjUZt_Quz6K7kKN--167" edge="1">
          <mxGeometry width="50" height="50" relative="1" as="geometry">
            <mxPoint y="86.66666666666667" as="sourcePoint" />
            <mxPoint x="35" y="65" as="targetPoint" />
          </mxGeometry>
        </mxCell>
        <mxCell id="9u0KMjUZt_Quz6K7kKN--174" value="" style="endArrow=none;html=1;" parent="9u0KMjUZt_Quz6K7kKN--167" edge="1">
          <mxGeometry width="50" height="50" relative="1" as="geometry">
            <mxPoint y="43.333333333333336" as="sourcePoint" />
            <mxPoint x="35" y="65" as="targetPoint" />
          </mxGeometry>
        </mxCell>
        <mxCell id="9u0KMjUZt_Quz6K7kKN--175" value="&lt;font style=&quot;font-size: 21px&quot;&gt;+&lt;/font&gt;" style="text;html=1;align=center;verticalAlign=middle;resizable=0;points=[];autosize=1;" parent="9u0KMjUZt_Quz6K7kKN--167" vertex="1">
          <mxGeometry x="35" y="55" width="30" height="20" as="geometry" />
        </mxCell>
        <mxCell id="9u0KMjUZt_Quz6K7kKN--185" style="edgeStyle=orthogonalEdgeStyle;rounded=0;orthogonalLoop=1;jettySize=auto;html=1;exitX=0.25;exitY=1;exitDx=0;exitDy=0;endArrow=none;endFill=0;entryX=1;entryY=0.5;entryDx=0;entryDy=0;" parent="HH7DKORKCEzCAmq62gNh-101" source="9u0KMjUZt_Quz6K7kKN--36" target="9u0KMjUZt_Quz6K7kKN--166" edge="1">
          <mxGeometry relative="1" as="geometry">
            <mxPoint x="2610" y="315" as="targetPoint" />
            <Array as="points">
              <mxPoint x="530" y="789" />
              <mxPoint x="530" y="170" />
              <mxPoint x="2830" y="170" />
              <mxPoint x="2830" y="315" />
            </Array>
          </mxGeometry>
        </mxCell>
        <mxCell id="9u0KMjUZt_Quz6K7kKN--176" value="" style="group" parent="HH7DKORKCEzCAmq62gNh-101" vertex="1" connectable="0">
          <mxGeometry x="1341.8600000000001" y="696" width="100" height="190" as="geometry" />
        </mxCell>
        <mxCell id="dThmx-n3adpbhEAnUbLH-103" value="" style="group;rounded=0;connectable=1;" parent="9u0KMjUZt_Quz6K7kKN--176" vertex="1" connectable="0">
          <mxGeometry width="100" height="190" as="geometry" />
        </mxCell>
        <mxCell id="dThmx-n3adpbhEAnUbLH-102" value="" style="group" parent="dThmx-n3adpbhEAnUbLH-103" vertex="1" connectable="0">
          <mxGeometry width="100" height="190" as="geometry" />
        </mxCell>
        <mxCell id="dThmx-n3adpbhEAnUbLH-94" value="" style="endArrow=none;html=1;" parent="dThmx-n3adpbhEAnUbLH-102" edge="1">
          <mxGeometry width="50" height="50" relative="1" as="geometry">
            <mxPoint y="63.333333333333336" as="sourcePoint" />
            <mxPoint as="targetPoint" />
          </mxGeometry>
        </mxCell>
        <mxCell id="dThmx-n3adpbhEAnUbLH-96" value="" style="endArrow=none;html=1;" parent="dThmx-n3adpbhEAnUbLH-102" edge="1">
          <mxGeometry width="50" height="50" relative="1" as="geometry">
            <mxPoint y="190" as="sourcePoint" />
            <mxPoint y="126.66666666666667" as="targetPoint" />
          </mxGeometry>
        </mxCell>
        <mxCell id="dThmx-n3adpbhEAnUbLH-97" value="" style="endArrow=none;html=1;" parent="dThmx-n3adpbhEAnUbLH-102" edge="1">
          <mxGeometry width="50" height="50" relative="1" as="geometry">
            <mxPoint x="100" y="137.22222222222223" as="sourcePoint" />
            <mxPoint x="100" y="52.77777777777778" as="targetPoint" />
          </mxGeometry>
        </mxCell>
        <mxCell id="dThmx-n3adpbhEAnUbLH-98" value="" style="endArrow=none;html=1;" parent="dThmx-n3adpbhEAnUbLH-102" edge="1">
          <mxGeometry width="50" height="50" relative="1" as="geometry">
            <mxPoint as="sourcePoint" />
            <mxPoint x="100" y="52.77777777777778" as="targetPoint" />
          </mxGeometry>
        </mxCell>
        <mxCell id="dThmx-n3adpbhEAnUbLH-99" value="" style="endArrow=none;html=1;" parent="dThmx-n3adpbhEAnUbLH-102" edge="1">
          <mxGeometry width="50" height="50" relative="1" as="geometry">
            <mxPoint y="190" as="sourcePoint" />
            <mxPoint x="100" y="137.22222222222223" as="targetPoint" />
          </mxGeometry>
        </mxCell>
        <mxCell id="dThmx-n3adpbhEAnUbLH-100" value="" style="endArrow=none;html=1;" parent="dThmx-n3adpbhEAnUbLH-102" edge="1">
          <mxGeometry width="50" height="50" relative="1" as="geometry">
            <mxPoint y="126.66666666666667" as="sourcePoint" />
            <mxPoint x="50" y="95" as="targetPoint" />
          </mxGeometry>
        </mxCell>
        <mxCell id="dThmx-n3adpbhEAnUbLH-101" value="" style="endArrow=none;html=1;" parent="dThmx-n3adpbhEAnUbLH-102" edge="1">
          <mxGeometry width="50" height="50" relative="1" as="geometry">
            <mxPoint y="63.333333333333336" as="sourcePoint" />
            <mxPoint x="50" y="95" as="targetPoint" />
          </mxGeometry>
        </mxCell>
        <mxCell id="9u0KMjUZt_Quz6K7kKN--74" value="&lt;font style=&quot;font-size: 18px&quot;&gt;ALU&lt;/font&gt;" style="text;html=1;align=center;verticalAlign=middle;resizable=0;points=[];autosize=1;" parent="dThmx-n3adpbhEAnUbLH-102" vertex="1">
          <mxGeometry x="45" y="85" width="50" height="20" as="geometry" />
        </mxCell>
        <mxCell id="6sOKHbeOXGZ0Ycy-URYJ-18" style="edgeStyle=none;rounded=0;orthogonalLoop=1;jettySize=auto;html=1;exitX=0.5;exitY=0;exitDx=0;exitDy=0;endArrow=none;endFill=0;strokeColor=#CC0000;strokeWidth=1;fontSize=18;fontColor=#CC0000;" parent="dThmx-n3adpbhEAnUbLH-102" edge="1">
          <mxGeometry relative="1" as="geometry">
            <mxPoint x="58.1988235294117" y="2.2737367544323206e-13" as="targetPoint" />
            <mxPoint x="58.139999999999986" y="31" as="sourcePoint" />
          </mxGeometry>
        </mxCell>
        <mxCell id="6sOKHbeOXGZ0Ycy-URYJ-19" value="" style="edgeLabel;html=1;align=center;verticalAlign=middle;resizable=0;points=[];fontSize=18;fontColor=#CC0000;" parent="6sOKHbeOXGZ0Ycy-URYJ-18" vertex="1" connectable="0">
          <mxGeometry x="0.7497" y="-1" relative="1" as="geometry">
            <mxPoint as="offset" />
          </mxGeometry>
        </mxCell>
        <mxCell id="9u0KMjUZt_Quz6K7kKN--92" style="edgeStyle=elbowEdgeStyle;rounded=0;orthogonalLoop=1;jettySize=auto;html=1;exitX=0;exitY=0.5;exitDx=0;exitDy=0;entryX=1;entryY=0.5;entryDx=0;entryDy=0;endArrow=none;endFill=0;" parent="HH7DKORKCEzCAmq62gNh-101" source="dThmx-n3adpbhEAnUbLH-111" target="dThmx-n3adpbhEAnUbLH-103" edge="1">
          <mxGeometry relative="1" as="geometry" />
        </mxCell>
        <mxCell id="9u0KMjUZt_Quz6K7kKN--180" style="edgeStyle=orthogonalEdgeStyle;rounded=0;orthogonalLoop=1;jettySize=auto;html=1;exitX=0;exitY=0.5;exitDx=0;exitDy=0;endArrow=none;endFill=0;" parent="HH7DKORKCEzCAmq62gNh-101" source="9u0KMjUZt_Quz6K7kKN--179" target="dThmx-n3adpbhEAnUbLH-111" edge="1">
          <mxGeometry relative="1" as="geometry" />
        </mxCell>
        <mxCell id="9u0KMjUZt_Quz6K7kKN--296" style="edgeStyle=none;rounded=0;orthogonalLoop=1;jettySize=auto;html=1;exitX=0.5;exitY=0;exitDx=0;exitDy=0;endArrow=none;endFill=0;strokeWidth=1;fontSize=18;fontColor=#CC0000;" parent="HH7DKORKCEzCAmq62gNh-101" source="9u0KMjUZt_Quz6K7kKN--179" edge="1">
          <mxGeometry relative="1" as="geometry">
            <mxPoint x="2511.190476190476" y="730" as="targetPoint" />
          </mxGeometry>
        </mxCell>
        <mxCell id="9u0KMjUZt_Quz6K7kKN--297" value="RegALU2_LATCH_EN" style="edgeLabel;html=1;align=center;verticalAlign=middle;resizable=0;points=[];fontSize=18;fontColor=#CC0000;" parent="9u0KMjUZt_Quz6K7kKN--296" vertex="1" connectable="0">
          <mxGeometry x="0.5732" y="-1" relative="1" as="geometry">
            <mxPoint x="-1.15" y="-6.72" as="offset" />
          </mxGeometry>
        </mxCell>
        <mxCell id="9u0KMjUZt_Quz6K7kKN--179" value="ALU &lt;br style=&quot;font-size: 18px;&quot;&gt;REG2" style="rounded=0;whiteSpace=wrap;html=1;fillColor=none;fontSize=18;" parent="HH7DKORKCEzCAmq62gNh-101" vertex="1">
          <mxGeometry x="2481" y="761" width="60" height="60" as="geometry" />
        </mxCell>
        <mxCell id="9u0KMjUZt_Quz6K7kKN--320" style="edgeStyle=none;rounded=0;orthogonalLoop=1;jettySize=auto;html=1;exitX=1;exitY=0.25;exitDx=0;exitDy=0;endArrow=none;endFill=0;strokeWidth=1;fontSize=18;fontColor=#CC0000;" parent="HH7DKORKCEzCAmq62gNh-101" source="9u0KMjUZt_Quz6K7kKN--186" edge="1">
          <mxGeometry relative="1" as="geometry">
            <mxPoint x="2718.8571428571427" y="870" as="targetPoint" />
          </mxGeometry>
        </mxCell>
        <mxCell id="9u0KMjUZt_Quz6K7kKN--321" value="MuxWB_SEL" style="edgeLabel;html=1;align=center;verticalAlign=middle;resizable=0;points=[];fontSize=18;fontColor=#CC0000;horizontal=0;" parent="9u0KMjUZt_Quz6K7kKN--320" vertex="1" connectable="0">
          <mxGeometry x="0.2561" y="1" relative="1" as="geometry">
            <mxPoint x="15.13" y="34.46" as="offset" />
          </mxGeometry>
        </mxCell>
        <mxCell id="6sOKHbeOXGZ0Ycy-URYJ-48" style="edgeStyle=orthogonalEdgeStyle;rounded=0;orthogonalLoop=1;jettySize=auto;html=1;exitX=0.75;exitY=1;exitDx=0;exitDy=0;entryX=1;entryY=0.5;entryDx=0;entryDy=0;endArrow=none;endFill=0;strokeColor=#000000;" parent="HH7DKORKCEzCAmq62gNh-101" source="9u0KMjUZt_Quz6K7kKN--186" target="9u0KMjUZt_Quz6K7kKN--129" edge="1">
          <mxGeometry relative="1" as="geometry">
            <Array as="points">
              <mxPoint x="2661" y="831" />
              <mxPoint x="2661" y="965" />
            </Array>
          </mxGeometry>
        </mxCell>
        <mxCell id="9u0KMjUZt_Quz6K7kKN--186" value="" style="shape=trapezoid;perimeter=trapezoidPerimeter;whiteSpace=wrap;html=1;fixedSize=1;rotation=90;fillColor=none;" parent="HH7DKORKCEzCAmq62gNh-101" vertex="1">
          <mxGeometry x="2674.25" y="795" width="78.75" height="31.8" as="geometry" />
        </mxCell>
        <mxCell id="9u0KMjUZt_Quz6K7kKN--190" style="edgeStyle=orthogonalEdgeStyle;rounded=0;orthogonalLoop=1;jettySize=auto;html=1;exitX=0.75;exitY=1;exitDx=0;exitDy=0;entryX=0.5;entryY=0;entryDx=0;entryDy=0;endArrow=none;endFill=0;" parent="HH7DKORKCEzCAmq62gNh-101" source="9u0KMjUZt_Quz6K7kKN--36" target="9u0KMjUZt_Quz6K7kKN--186" edge="1">
          <mxGeometry relative="1" as="geometry">
            <Array as="points">
              <mxPoint x="580" y="820" />
              <mxPoint x="580" y="120" />
              <mxPoint x="2880" y="120" />
              <mxPoint x="2880" y="811" />
            </Array>
          </mxGeometry>
        </mxCell>
        <mxCell id="9u0KMjUZt_Quz6K7kKN--191" style="edgeStyle=orthogonalEdgeStyle;rounded=0;orthogonalLoop=1;jettySize=auto;html=1;exitX=0.25;exitY=1;exitDx=0;exitDy=0;entryX=0.5;entryY=0;entryDx=0;entryDy=0;endArrow=none;endFill=0;" parent="HH7DKORKCEzCAmq62gNh-101" source="9u0KMjUZt_Quz6K7kKN--75" target="9u0KMjUZt_Quz6K7kKN--186" edge="1">
          <mxGeometry relative="1" as="geometry">
            <Array as="points">
              <mxPoint x="1210" y="498" />
              <mxPoint x="1210" y="120" />
              <mxPoint x="2880" y="120" />
              <mxPoint x="2880" y="811" />
            </Array>
          </mxGeometry>
        </mxCell>
        <mxCell id="9u0KMjUZt_Quz6K7kKN--188" style="edgeStyle=orthogonalEdgeStyle;rounded=0;orthogonalLoop=1;jettySize=auto;html=1;exitX=1;exitY=0.5;exitDx=0;exitDy=0;entryX=0.25;entryY=1;entryDx=0;entryDy=0;endArrow=none;endFill=0;" parent="HH7DKORKCEzCAmq62gNh-101" source="9u0KMjUZt_Quz6K7kKN--179" target="9u0KMjUZt_Quz6K7kKN--186" edge="1">
          <mxGeometry relative="1" as="geometry" />
        </mxCell>
        <mxCell id="9u0KMjUZt_Quz6K7kKN--212" value="&lt;font style=&quot;font-size: 28px&quot;&gt;INSTRUCTION FETCH (IF)&lt;/font&gt;" style="text;html=1;align=center;verticalAlign=middle;resizable=0;points=[];autosize=1;" parent="HH7DKORKCEzCAmq62gNh-101" vertex="1">
          <mxGeometry width="360" height="30" as="geometry" />
        </mxCell>
        <mxCell id="9u0KMjUZt_Quz6K7kKN--213" value="&lt;font style=&quot;font-size: 28px&quot;&gt;INSTRUCTION DECODE (ID)&lt;/font&gt;" style="text;html=1;align=center;verticalAlign=middle;resizable=0;points=[];autosize=1;" parent="HH7DKORKCEzCAmq62gNh-101" vertex="1">
          <mxGeometry x="520" width="390" height="30" as="geometry" />
        </mxCell>
        <mxCell id="9u0KMjUZt_Quz6K7kKN--214" value="&lt;font style=&quot;font-size: 28px&quot;&gt;EXECUTION (EX)&lt;/font&gt;" style="text;html=1;align=center;verticalAlign=middle;resizable=0;points=[];autosize=1;" parent="HH7DKORKCEzCAmq62gNh-101" vertex="1">
          <mxGeometry x="1136.24" width="240" height="30" as="geometry" />
        </mxCell>
        <mxCell id="9u0KMjUZt_Quz6K7kKN--215" value="&lt;font style=&quot;font-size: 28px&quot;&gt;MEMORY ACCESS (MEM)&lt;/font&gt;" style="text;html=1;align=center;verticalAlign=middle;resizable=0;points=[];autosize=1;" parent="HH7DKORKCEzCAmq62gNh-101" vertex="1">
          <mxGeometry x="1890.5" width="350" height="30" as="geometry" />
        </mxCell>
        <mxCell id="9u0KMjUZt_Quz6K7kKN--216" value="&lt;font style=&quot;font-size: 28px&quot;&gt;WRITE-BACK (WB)&lt;/font&gt;" style="text;html=1;align=center;verticalAlign=middle;resizable=0;points=[];autosize=1;" parent="HH7DKORKCEzCAmq62gNh-101" vertex="1">
          <mxGeometry x="2800" width="260" height="30" as="geometry" />
        </mxCell>
        <mxCell id="9u0KMjUZt_Quz6K7kKN--225" style="edgeStyle=orthogonalEdgeStyle;rounded=0;orthogonalLoop=1;jettySize=auto;html=1;exitX=0;exitY=0.75;exitDx=0;exitDy=0;entryX=1;entryY=0.5;entryDx=0;entryDy=0;endArrow=none;endFill=0;strokeWidth=1;fontSize=18;fontColor=#CC0000;" parent="HH7DKORKCEzCAmq62gNh-101" source="9u0KMjUZt_Quz6K7kKN--223" target="9u0KMjUZt_Quz6K7kKN--50" edge="1">
          <mxGeometry relative="1" as="geometry">
            <Array as="points">
              <mxPoint x="2774" y="1591" />
              <mxPoint x="1440" y="1591" />
              <mxPoint x="1440" y="1416" />
            </Array>
          </mxGeometry>
        </mxCell>
        <mxCell id="9u0KMjUZt_Quz6K7kKN--229" style="edgeStyle=orthogonalEdgeStyle;rounded=0;orthogonalLoop=1;jettySize=auto;html=1;exitX=1;exitY=0.5;exitDx=0;exitDy=0;endArrow=none;endFill=0;strokeWidth=1;fontSize=18;fontColor=#CC0000;" parent="HH7DKORKCEzCAmq62gNh-101" source="9u0KMjUZt_Quz6K7kKN--223" edge="1">
          <mxGeometry relative="1" as="geometry">
            <mxPoint x="2963.8500000000004" y="1597" as="targetPoint" />
            <Array as="points">
              <mxPoint x="2933.8500000000004" y="1597" />
              <mxPoint x="2963.8500000000004" y="1597" />
            </Array>
          </mxGeometry>
        </mxCell>
        <mxCell id="9u0KMjUZt_Quz6K7kKN--230" value="" style="edgeStyle=orthogonalEdgeStyle;rounded=0;orthogonalLoop=1;jettySize=auto;html=1;exitX=1;exitY=0.5;exitDx=0;exitDy=0;endArrow=none;endFill=0;strokeWidth=1;fontSize=18;fontColor=#CC0000;" parent="HH7DKORKCEzCAmq62gNh-101" source="9u0KMjUZt_Quz6K7kKN--223" edge="1">
          <mxGeometry relative="1" as="geometry">
            <mxPoint x="2963.8500000000004" y="1557" as="targetPoint" />
            <Array as="points">
              <mxPoint x="2933.8500000000004" y="1557" />
              <mxPoint x="2963.8500000000004" y="1557" />
            </Array>
          </mxGeometry>
        </mxCell>
        <mxCell id="9u0KMjUZt_Quz6K7kKN--334" value="&lt;font color=&quot;#009900&quot;&gt;FWD_A&lt;/font&gt;" style="edgeLabel;html=1;align=center;verticalAlign=middle;resizable=0;points=[];fontSize=18;fontColor=#0000CC;" parent="9u0KMjUZt_Quz6K7kKN--230" vertex="1" connectable="0">
          <mxGeometry x="0.9748" y="2" relative="1" as="geometry">
            <mxPoint x="18.9" y="-18" as="offset" />
          </mxGeometry>
        </mxCell>
        <mxCell id="9u0KMjUZt_Quz6K7kKN--232" style="edgeStyle=orthogonalEdgeStyle;rounded=0;orthogonalLoop=1;jettySize=auto;html=1;exitX=1;exitY=0.5;exitDx=0;exitDy=0;endArrow=none;endFill=0;strokeWidth=1;fontSize=18;fontColor=#CC0000;" parent="HH7DKORKCEzCAmq62gNh-101" source="9u0KMjUZt_Quz6K7kKN--223" edge="1">
          <mxGeometry relative="1" as="geometry">
            <mxPoint x="2963.8500000000004" y="1637" as="targetPoint" />
            <Array as="points">
              <mxPoint x="2933.8500000000004" y="1637" />
              <mxPoint x="2963.8500000000004" y="1637" />
            </Array>
          </mxGeometry>
        </mxCell>
        <mxCell id="9u0KMjUZt_Quz6K7kKN--233" style="edgeStyle=orthogonalEdgeStyle;rounded=0;orthogonalLoop=1;jettySize=auto;html=1;exitX=1;exitY=0.5;exitDx=0;exitDy=0;endArrow=none;endFill=0;strokeWidth=1;fontSize=18;fontColor=#CC0000;" parent="HH7DKORKCEzCAmq62gNh-101" source="9u0KMjUZt_Quz6K7kKN--223" edge="1">
          <mxGeometry relative="1" as="geometry">
            <mxPoint x="2963.8500000000004" y="1667" as="targetPoint" />
            <Array as="points">
              <mxPoint x="2933.8500000000004" y="1667" />
            </Array>
          </mxGeometry>
        </mxCell>
        <mxCell id="9u0KMjUZt_Quz6K7kKN--322" style="edgeStyle=none;rounded=0;orthogonalLoop=1;jettySize=auto;html=1;exitX=0.25;exitY=0;exitDx=0;exitDy=0;endArrow=none;endFill=0;strokeWidth=1;fontSize=18;fontColor=#CC0000;" parent="HH7DKORKCEzCAmq62gNh-101" source="9u0KMjUZt_Quz6K7kKN--223" edge="1">
          <mxGeometry relative="1" as="geometry">
            <mxPoint x="2813.683333333334" y="1497" as="targetPoint" />
          </mxGeometry>
        </mxCell>
        <mxCell id="9u0KMjUZt_Quz6K7kKN--324" value="RF_WE_EX" style="edgeLabel;html=1;align=center;verticalAlign=middle;resizable=0;points=[];fontSize=18;fontColor=#CC0000;horizontal=0;" parent="9u0KMjUZt_Quz6K7kKN--322" vertex="1" connectable="0">
          <mxGeometry x="0.8482" relative="1" as="geometry">
            <mxPoint x="-19.85" y="-32.22" as="offset" />
          </mxGeometry>
        </mxCell>
        <mxCell id="9u0KMjUZt_Quz6K7kKN--323" style="edgeStyle=none;rounded=0;orthogonalLoop=1;jettySize=auto;html=1;exitX=0.75;exitY=0;exitDx=0;exitDy=0;endArrow=none;endFill=0;strokeWidth=1;fontSize=18;fontColor=#CC0000;" parent="HH7DKORKCEzCAmq62gNh-101" source="9u0KMjUZt_Quz6K7kKN--223" edge="1">
          <mxGeometry relative="1" as="geometry">
            <mxPoint x="2893.683333333334" y="1497" as="targetPoint" />
          </mxGeometry>
        </mxCell>
        <mxCell id="9u0KMjUZt_Quz6K7kKN--223" value="&lt;font color=&quot;#190033&quot;&gt;FORWARDING UNIT&lt;/font&gt;" style="rounded=0;whiteSpace=wrap;html=1;fontSize=18;fillColor=none;" parent="HH7DKORKCEzCAmq62gNh-101" vertex="1">
          <mxGeometry x="2773.85" y="1527" width="160" height="170" as="geometry" />
        </mxCell>
        <mxCell id="9u0KMjUZt_Quz6K7kKN--226" style="edgeStyle=orthogonalEdgeStyle;rounded=0;orthogonalLoop=1;jettySize=auto;html=1;entryX=0;entryY=0.75;entryDx=0;entryDy=0;endArrow=none;endFill=0;strokeWidth=1;fontSize=18;fontColor=#CC0000;exitX=1;exitY=0.5;exitDx=0;exitDy=0;" parent="HH7DKORKCEzCAmq62gNh-101" source="dThmx-n3adpbhEAnUbLH-129" target="9u0KMjUZt_Quz6K7kKN--223" edge="1">
          <mxGeometry relative="1" as="geometry">
            <Array as="points">
              <mxPoint x="475" y="790" />
              <mxPoint x="475" y="1655" />
              <mxPoint x="2586" y="1655" />
            </Array>
            <mxPoint x="400" y="921" as="sourcePoint" />
            <mxPoint x="2546.91" y="1591.2199999999998" as="targetPoint" />
          </mxGeometry>
        </mxCell>
        <mxCell id="9u0KMjUZt_Quz6K7kKN--227" style="edgeStyle=orthogonalEdgeStyle;rounded=0;orthogonalLoop=1;jettySize=auto;html=1;endArrow=none;endFill=0;strokeWidth=1;fontSize=18;fontColor=#CC0000;entryX=0;entryY=0.592;entryDx=0;entryDy=0;entryPerimeter=0;exitX=1;exitY=0.5;exitDx=0;exitDy=0;" parent="HH7DKORKCEzCAmq62gNh-101" source="dThmx-n3adpbhEAnUbLH-129" target="9u0KMjUZt_Quz6K7kKN--223" edge="1">
          <mxGeometry relative="1" as="geometry">
            <mxPoint x="2547.0699999999997" y="1561" as="targetPoint" />
            <Array as="points">
              <mxPoint x="475" y="790" />
              <mxPoint x="475" y="1621" />
              <mxPoint x="2774" y="1621" />
            </Array>
            <mxPoint x="400" y="921" as="sourcePoint" />
          </mxGeometry>
        </mxCell>
        <mxCell id="9u0KMjUZt_Quz6K7kKN--224" style="edgeStyle=orthogonalEdgeStyle;rounded=0;orthogonalLoop=1;jettySize=auto;html=1;entryX=-0.002;entryY=0.189;entryDx=0;entryDy=0;endArrow=none;endFill=0;strokeWidth=1;fontSize=18;fontColor=#CC0000;entryPerimeter=0;" parent="HH7DKORKCEzCAmq62gNh-101" source="9u0KMjUZt_Quz6K7kKN--94" target="9u0KMjUZt_Quz6K7kKN--223" edge="1">
          <mxGeometry relative="1" as="geometry">
            <Array as="points">
              <mxPoint x="2400" y="1416" />
              <mxPoint x="2400" y="1559" />
            </Array>
          </mxGeometry>
        </mxCell>
        <mxCell id="9u0KMjUZt_Quz6K7kKN--330" value="RD_MEM" style="edgeLabel;html=1;align=center;verticalAlign=middle;resizable=0;points=[];fontSize=18;fontColor=#0000CC;" parent="9u0KMjUZt_Quz6K7kKN--224" vertex="1" connectable="0">
          <mxGeometry x="0.8932" y="8" relative="1" as="geometry">
            <mxPoint x="13.719999999999999" y="-8" as="offset" />
          </mxGeometry>
        </mxCell>
        <mxCell id="9u0KMjUZt_Quz6K7kKN--256" value="RF_RD2" style="edgeLabel;html=1;align=center;verticalAlign=middle;resizable=0;points=[];fontSize=18;fontColor=#CC0000;horizontal=0;" parent="HH7DKORKCEzCAmq62gNh-101" vertex="1" connectable="0">
          <mxGeometry x="699.997195029676" y="616.9984004304245" as="geometry" />
        </mxCell>
        <mxCell id="9u0KMjUZt_Quz6K7kKN--257" value="RF_WE" style="edgeLabel;html=1;align=center;verticalAlign=middle;resizable=0;points=[];fontSize=18;fontColor=#CC0000;horizontal=0;" parent="HH7DKORKCEzCAmq62gNh-101" vertex="1" connectable="0">
          <mxGeometry x="718.997195029676" y="619.9984004304245" as="geometry" />
        </mxCell>
        <mxCell id="9u0KMjUZt_Quz6K7kKN--265" style="rounded=0;orthogonalLoop=1;jettySize=auto;html=1;exitX=0;exitY=0.75;exitDx=0;exitDy=0;endArrow=none;endFill=0;strokeWidth=1;fontSize=18;fontColor=#CC0000;" parent="HH7DKORKCEzCAmq62gNh-101" edge="1">
          <mxGeometry relative="1" as="geometry">
            <mxPoint x="660.0044444444444" y="630" as="targetPoint" />
            <mxPoint x="660.0600000000001" y="670" as="sourcePoint" />
          </mxGeometry>
        </mxCell>
        <mxCell id="9u0KMjUZt_Quz6K7kKN--266" value="RF_LATCH_EN" style="edgeLabel;html=1;align=center;verticalAlign=middle;resizable=0;points=[];fontSize=18;fontColor=#CC0000;horizontal=0;" parent="9u0KMjUZt_Quz6K7kKN--265" vertex="1" connectable="0">
          <mxGeometry x="0.8725" y="1" relative="1" as="geometry">
            <mxPoint x="-1" y="-44.86" as="offset" />
          </mxGeometry>
        </mxCell>
        <mxCell id="9u0KMjUZt_Quz6K7kKN--284" value="JUMP_EN" style="edgeLabel;html=1;align=center;verticalAlign=middle;resizable=0;points=[];fontSize=18;fontColor=#CC0000;horizontal=0;" parent="HH7DKORKCEzCAmq62gNh-101" vertex="1" connectable="0">
          <mxGeometry x="1575.9996979964735" y="609.9989673837108" as="geometry" />
        </mxCell>
        <mxCell id="9u0KMjUZt_Quz6K7kKN--325" value="RF_WE_MEM" style="edgeLabel;html=1;align=center;verticalAlign=middle;resizable=0;points=[];fontSize=18;fontColor=#CC0000;horizontal=0;" parent="HH7DKORKCEzCAmq62gNh-101" vertex="1" connectable="0">
          <mxGeometry x="2873.845681393788" y="1457.0026508817095" as="geometry" />
        </mxCell>
        <mxCell id="9u0KMjUZt_Quz6K7kKN--329" value="RS2" style="edgeLabel;html=1;align=center;verticalAlign=middle;resizable=0;points=[];fontSize=18;fontColor=#0000CC;" parent="HH7DKORKCEzCAmq62gNh-101" vertex="1" connectable="0">
          <mxGeometry x="628.9931034482759" y="694.3299999999998" as="geometry">
            <mxPoint x="-14" y="23" as="offset" />
          </mxGeometry>
        </mxCell>
        <mxCell id="9u0KMjUZt_Quz6K7kKN--331" value="RD_EX" style="edgeLabel;html=1;align=center;verticalAlign=middle;resizable=0;points=[];fontSize=18;fontColor=#0000CC;" parent="HH7DKORKCEzCAmq62gNh-101" vertex="1" connectable="0">
          <mxGeometry x="2729.995862068965" y="1574" as="geometry">
            <mxPoint x="2" as="offset" />
          </mxGeometry>
        </mxCell>
        <mxCell id="9u0KMjUZt_Quz6K7kKN--332" value="RS1" style="edgeLabel;html=1;align=center;verticalAlign=middle;resizable=0;points=[];fontSize=18;fontColor=#0000CC;" parent="HH7DKORKCEzCAmq62gNh-101" vertex="1" connectable="0">
          <mxGeometry x="2728.775862068965" y="1612" as="geometry">
            <mxPoint x="17" y="-5" as="offset" />
          </mxGeometry>
        </mxCell>
        <mxCell id="9u0KMjUZt_Quz6K7kKN--333" value="RS2" style="edgeLabel;html=1;align=center;verticalAlign=middle;resizable=0;points=[];fontSize=18;fontColor=#0000CC;" parent="HH7DKORKCEzCAmq62gNh-101" vertex="1" connectable="0">
          <mxGeometry x="2742.995862068965" y="1641" as="geometry">
            <mxPoint x="2" as="offset" />
          </mxGeometry>
        </mxCell>
        <mxCell id="9u0KMjUZt_Quz6K7kKN--335" value="&lt;font color=&quot;#009900&quot;&gt;FWD_B&lt;/font&gt;" style="edgeLabel;html=1;align=center;verticalAlign=middle;resizable=0;points=[];fontSize=18;fontColor=#0000CC;" parent="HH7DKORKCEzCAmq62gNh-101" vertex="1" connectable="0">
          <mxGeometry x="2981.7799918181827" y="1585" as="geometry" />
        </mxCell>
        <mxCell id="9u0KMjUZt_Quz6K7kKN--336" value="&lt;font color=&quot;#009900&quot;&gt;FWD_C&lt;/font&gt;" style="edgeLabel;html=1;align=center;verticalAlign=middle;resizable=0;points=[];fontSize=18;fontColor=#0000CC;" parent="HH7DKORKCEzCAmq62gNh-101" vertex="1" connectable="0">
          <mxGeometry x="2981.7799918181827" y="1624" as="geometry" />
        </mxCell>
        <mxCell id="9u0KMjUZt_Quz6K7kKN--337" value="&lt;font color=&quot;#009900&quot;&gt;FWD_D&lt;/font&gt;" style="edgeLabel;html=1;align=center;verticalAlign=middle;resizable=0;points=[];fontSize=18;fontColor=#0000CC;" parent="HH7DKORKCEzCAmq62gNh-101" vertex="1" connectable="0">
          <mxGeometry x="2981.7799918181827" y="1654" as="geometry" />
        </mxCell>
        <mxCell id="BWXcSawq8DC5SIe4_S4r-3" value="" style="ellipse;whiteSpace=wrap;html=1;aspect=fixed;fillColor=#000000;" parent="HH7DKORKCEzCAmq62gNh-101" vertex="1">
          <mxGeometry x="1717" y="787.5" width="7" height="7" as="geometry" />
        </mxCell>
        <mxCell id="BWXcSawq8DC5SIe4_S4r-17" style="edgeStyle=elbowEdgeStyle;rounded=0;orthogonalLoop=1;jettySize=auto;html=1;exitX=1;exitY=0.5;exitDx=0;exitDy=0;entryX=0;entryY=0.5;entryDx=0;entryDy=0;endArrow=none;endFill=0;" parent="HH7DKORKCEzCAmq62gNh-101" source="9u0KMjUZt_Quz6K7kKN--94" edge="1">
          <mxGeometry relative="1" as="geometry">
            <mxPoint x="1576" y="1416" as="sourcePoint" />
            <mxPoint x="1793.0000000001264" y="1416" as="targetPoint" />
          </mxGeometry>
        </mxCell>
        <mxCell id="BWXcSawq8DC5SIe4_S4r-21" value="" style="ellipse;whiteSpace=wrap;html=1;aspect=fixed;fillColor=#000000;" parent="HH7DKORKCEzCAmq62gNh-101" vertex="1">
          <mxGeometry x="1077" y="356" width="7" height="7" as="geometry" />
        </mxCell>
        <mxCell id="BWXcSawq8DC5SIe4_S4r-22" value="" style="ellipse;whiteSpace=wrap;html=1;aspect=fixed;fillColor=#000000;" parent="HH7DKORKCEzCAmq62gNh-101" vertex="1">
          <mxGeometry x="141" y="747" width="7" height="7" as="geometry" />
        </mxCell>
        <mxCell id="BWXcSawq8DC5SIe4_S4r-23" value="" style="ellipse;whiteSpace=wrap;html=1;aspect=fixed;fillColor=#000000;" parent="HH7DKORKCEzCAmq62gNh-101" vertex="1">
          <mxGeometry x="1016" y="846" width="7" height="7" as="geometry" />
        </mxCell>
        <mxCell id="BWXcSawq8DC5SIe4_S4r-24" value="" style="ellipse;whiteSpace=wrap;html=1;aspect=fixed;fillColor=#000000;" parent="HH7DKORKCEzCAmq62gNh-101" vertex="1">
          <mxGeometry x="1007" y="727" width="7" height="7" as="geometry" />
        </mxCell>
        <mxCell id="BWXcSawq8DC5SIe4_S4r-26" value="" style="ellipse;whiteSpace=wrap;html=1;aspect=fixed;fillColor=#000000;" parent="HH7DKORKCEzCAmq62gNh-101" vertex="1">
          <mxGeometry x="1206.8600000000001" y="116" width="7" height="7" as="geometry" />
        </mxCell>
        <mxCell id="BWXcSawq8DC5SIe4_S4r-27" value="" style="ellipse;whiteSpace=wrap;html=1;aspect=fixed;fillColor=#000000;" parent="HH7DKORKCEzCAmq62gNh-101" vertex="1">
          <mxGeometry x="1205.8600000000001" y="493" width="7" height="7" as="geometry" />
        </mxCell>
        <mxCell id="BWXcSawq8DC5SIe4_S4r-28" value="" style="ellipse;whiteSpace=wrap;html=1;aspect=fixed;fillColor=#000000;" parent="HH7DKORKCEzCAmq62gNh-101" vertex="1">
          <mxGeometry x="1205.8600000000001" y="662" width="7" height="7" as="geometry" />
        </mxCell>
        <mxCell id="BWXcSawq8DC5SIe4_S4r-29" value="" style="ellipse;whiteSpace=wrap;html=1;aspect=fixed;fillColor=#000000;" parent="HH7DKORKCEzCAmq62gNh-101" vertex="1">
          <mxGeometry x="1176" y="516.5" width="7" height="7" as="geometry" />
        </mxCell>
        <mxCell id="BWXcSawq8DC5SIe4_S4r-30" value="" style="ellipse;whiteSpace=wrap;html=1;aspect=fixed;fillColor=#000000;" parent="HH7DKORKCEzCAmq62gNh-101" vertex="1">
          <mxGeometry x="1176" y="684.5" width="7" height="7" as="geometry" />
        </mxCell>
        <mxCell id="BWXcSawq8DC5SIe4_S4r-34" value="RD" style="edgeLabel;html=1;align=center;verticalAlign=middle;resizable=0;points=[];fontSize=18;fontColor=#0000CC;" parent="HH7DKORKCEzCAmq62gNh-101" vertex="1" connectable="0">
          <mxGeometry x="834.995714285714" y="1363" as="geometry">
            <mxPoint x="-7" y="40" as="offset" />
          </mxGeometry>
        </mxCell>
        <mxCell id="6sOKHbeOXGZ0Ycy-URYJ-3" style="edgeStyle=orthogonalEdgeStyle;rounded=0;orthogonalLoop=1;jettySize=auto;html=1;entryX=0;entryY=0.5;entryDx=0;entryDy=0;endArrow=none;endFill=0;" parent="HH7DKORKCEzCAmq62gNh-101" source="6sOKHbeOXGZ0Ycy-URYJ-1" target="dThmx-n3adpbhEAnUbLH-62" edge="1">
          <mxGeometry relative="1" as="geometry" />
        </mxCell>
        <mxCell id="6sOKHbeOXGZ0Ycy-URYJ-7" style="edgeStyle=orthogonalEdgeStyle;rounded=0;orthogonalLoop=1;jettySize=auto;html=1;endArrow=none;endFill=0;" parent="HH7DKORKCEzCAmq62gNh-101" source="6sOKHbeOXGZ0Ycy-URYJ-1" edge="1">
          <mxGeometry relative="1" as="geometry">
            <mxPoint x="715" y="1156" as="targetPoint" />
          </mxGeometry>
        </mxCell>
        <mxCell id="6sOKHbeOXGZ0Ycy-URYJ-1" value="SIGN EXTEND" style="rounded=0;whiteSpace=wrap;html=1;fillColor=none;fontSize=18;" parent="HH7DKORKCEzCAmq62gNh-101" vertex="1">
          <mxGeometry x="655" y="1186" width="120" height="90" as="geometry" />
        </mxCell>
        <mxCell id="6sOKHbeOXGZ0Ycy-URYJ-2" style="edgeStyle=orthogonalEdgeStyle;rounded=0;orthogonalLoop=1;jettySize=auto;html=1;entryX=0;entryY=0.5;entryDx=0;entryDy=0;endArrow=none;endFill=0;exitX=1;exitY=0.5;exitDx=0;exitDy=0;" parent="HH7DKORKCEzCAmq62gNh-101" source="dThmx-n3adpbhEAnUbLH-129" target="6sOKHbeOXGZ0Ycy-URYJ-1" edge="1">
          <mxGeometry relative="1" as="geometry">
            <mxPoint x="405" y="921.0000000000005" as="sourcePoint" />
            <Array as="points">
              <mxPoint x="475" y="790" />
              <mxPoint x="475" y="1231" />
            </Array>
          </mxGeometry>
        </mxCell>
        <mxCell id="6sOKHbeOXGZ0Ycy-URYJ-6" value="IMM26" style="edgeLabel;html=1;align=center;verticalAlign=middle;resizable=0;points=[];fontSize=18;fontColor=#0000CC;" parent="HH7DKORKCEzCAmq62gNh-101" vertex="1" connectable="0">
          <mxGeometry x="628.995714285714" y="1173" as="geometry">
            <mxPoint x="-7" y="40" as="offset" />
          </mxGeometry>
        </mxCell>
        <mxCell id="6sOKHbeOXGZ0Ycy-URYJ-8" value="IMM_SEL" style="edgeLabel;html=1;align=center;verticalAlign=middle;resizable=0;points=[];fontSize=18;fontColor=#CC0000;" parent="HH7DKORKCEzCAmq62gNh-101" vertex="1" connectable="0">
          <mxGeometry x="896" y="1206" as="geometry">
            <mxPoint x="-180" y="-47" as="offset" />
          </mxGeometry>
        </mxCell>
        <mxCell id="BWXcSawq8DC5SIe4_S4r-19" value="" style="ellipse;whiteSpace=wrap;html=1;aspect=fixed;fillColor=#000000;" parent="HH7DKORKCEzCAmq62gNh-101" vertex="1">
          <mxGeometry x="1716" y="356.5" width="7" height="7" as="geometry" />
        </mxCell>
        <mxCell id="9u0KMjUZt_Quz6K7kKN--144" style="edgeStyle=elbowEdgeStyle;rounded=0;orthogonalLoop=1;jettySize=auto;html=1;entryX=0;entryY=0.5;entryDx=0;entryDy=0;endArrow=none;endFill=0;" parent="HH7DKORKCEzCAmq62gNh-101" source="BWXcSawq8DC5SIe4_S4r-19" target="9u0KMjUZt_Quz6K7kKN--143" edge="1">
          <mxGeometry relative="1" as="geometry" />
        </mxCell>
        <mxCell id="6sOKHbeOXGZ0Ycy-URYJ-13" style="edgeStyle=elbowEdgeStyle;rounded=0;orthogonalLoop=1;jettySize=auto;html=1;entryX=0;entryY=0.5;entryDx=0;entryDy=0;endArrow=none;endFill=0;" parent="HH7DKORKCEzCAmq62gNh-101" source="9u0KMjUZt_Quz6K7kKN--101" target="BWXcSawq8DC5SIe4_S4r-19" edge="1">
          <mxGeometry relative="1" as="geometry">
            <mxPoint x="1576" y="360" as="sourcePoint" />
            <mxPoint x="2140" y="360" as="targetPoint" />
          </mxGeometry>
        </mxCell>
        <mxCell id="6sOKHbeOXGZ0Ycy-URYJ-20" value="ALU_OPCODE" style="edgeLabel;html=1;align=center;verticalAlign=middle;resizable=0;points=[];fontSize=18;fontColor=#CC0000;horizontal=0;" parent="HH7DKORKCEzCAmq62gNh-101" vertex="1" connectable="0">
          <mxGeometry x="1400.0015025797218" y="649.9990892525251" as="geometry" />
        </mxCell>
        <mxCell id="6sOKHbeOXGZ0Ycy-URYJ-54" value="" style="ellipse;whiteSpace=wrap;html=1;aspect=fixed;fillColor=#000000;" parent="HH7DKORKCEzCAmq62gNh-101" vertex="1">
          <mxGeometry x="1435.8600000000001" y="1412" width="7" height="7" as="geometry" />
        </mxCell>
        <mxCell id="6sOKHbeOXGZ0Ycy-URYJ-58" value="" style="ellipse;whiteSpace=wrap;html=1;aspect=fixed;fillColor=#000000;" parent="HH7DKORKCEzCAmq62gNh-101" vertex="1">
          <mxGeometry x="2397" y="1413" width="7" height="7" as="geometry" />
        </mxCell>
        <mxCell id="6sOKHbeOXGZ0Ycy-URYJ-82" value="" style="ellipse;whiteSpace=wrap;html=1;aspect=fixed;fillColor=#000000;" parent="HH7DKORKCEzCAmq62gNh-101" vertex="1">
          <mxGeometry x="1717" y="444.8" width="7" height="7" as="geometry" />
        </mxCell>
        <mxCell id="6sOKHbeOXGZ0Ycy-URYJ-94" value="STACK" style="rounded=0;whiteSpace=wrap;html=1;rotation=90;fontSize=18;horizontal=0;fillColor=none;" parent="HH7DKORKCEzCAmq62gNh-101" vertex="1">
          <mxGeometry x="663.25" y="970.9" width="97.5" height="120" as="geometry" />
        </mxCell>
        <mxCell id="6sOKHbeOXGZ0Ycy-URYJ-104" value="CALL" style="edgeLabel;html=1;align=center;verticalAlign=middle;resizable=0;points=[];fontSize=18;fontColor=#CC0000;horizontal=0;" parent="HH7DKORKCEzCAmq62gNh-101" vertex="1" connectable="0">
          <mxGeometry x="739.997195029676" y="627.9984004304245" as="geometry" />
        </mxCell>
        <mxCell id="6sOKHbeOXGZ0Ycy-URYJ-105" value="RET" style="edgeLabel;html=1;align=center;verticalAlign=middle;resizable=0;points=[];fontSize=18;fontColor=#CC0000;horizontal=0;" parent="HH7DKORKCEzCAmq62gNh-101" vertex="1" connectable="0">
          <mxGeometry x="746.997195029676" y="623.9984004304245" as="geometry">
            <mxPoint x="12" y="-7" as="offset" />
          </mxGeometry>
        </mxCell>
        <mxCell id="6sOKHbeOXGZ0Ycy-URYJ-110" value="FILL" style="edgeLabel;html=1;align=center;verticalAlign=middle;resizable=0;points=[];fontSize=18;rotation=270;fontColor=#FF8000;" parent="HH7DKORKCEzCAmq62gNh-101" vertex="1" connectable="0">
          <mxGeometry x="658" y="960.0049477599613" as="geometry" />
        </mxCell>
        <mxCell id="6sOKHbeOXGZ0Ycy-URYJ-111" value="SPILL" style="edgeLabel;html=1;align=center;verticalAlign=middle;resizable=0;points=[];fontSize=18;rotation=270;fontColor=#FF8000;" parent="HH7DKORKCEzCAmq62gNh-101" vertex="1" connectable="0">
          <mxGeometry x="689" y="953.0049477599613" as="geometry" />
        </mxCell>
        <mxCell id="6sOKHbeOXGZ0Ycy-URYJ-112" value="DIN" style="edgeLabel;html=1;align=center;verticalAlign=middle;resizable=0;points=[];fontSize=18;rotation=270;fontColor=#FF8000;" parent="HH7DKORKCEzCAmq62gNh-101" vertex="1" connectable="0">
          <mxGeometry x="720" y="962.0049477599613" as="geometry" />
        </mxCell>
        <mxCell id="6sOKHbeOXGZ0Ycy-URYJ-113" value="DOUT" style="edgeLabel;html=1;align=center;verticalAlign=middle;resizable=0;points=[];fontSize=18;rotation=270;fontColor=#FF8000;" parent="HH7DKORKCEzCAmq62gNh-101" vertex="1" connectable="0">
          <mxGeometry x="748" y="952.0049477599613" as="geometry" />
        </mxCell>
        <mxCell id="6sOKHbeOXGZ0Ycy-URYJ-115" style="edgeStyle=none;rounded=0;orthogonalLoop=1;jettySize=auto;html=1;exitX=1;exitY=0.75;exitDx=0;exitDy=0;entryX=0;entryY=0.851;entryDx=0;entryDy=0;entryPerimeter=0;endArrow=none;endFill=0;strokeColor=#000000;fontColor=#FF8000;" parent="HH7DKORKCEzCAmq62gNh-101" edge="1">
          <mxGeometry relative="1" as="geometry">
            <mxPoint x="699.9200000000001" y="910.42" as="sourcePoint" />
            <mxPoint x="699.8" y="982.5700000000002" as="targetPoint" />
          </mxGeometry>
        </mxCell>
        <mxCell id="6sOKHbeOXGZ0Ycy-URYJ-116" style="edgeStyle=none;rounded=0;orthogonalLoop=1;jettySize=auto;html=1;exitX=1;exitY=0.75;exitDx=0;exitDy=0;entryX=0;entryY=0.851;entryDx=0;entryDy=0;entryPerimeter=0;endArrow=none;endFill=0;strokeColor=#000000;fontColor=#FF8000;" parent="HH7DKORKCEzCAmq62gNh-101" edge="1">
          <mxGeometry relative="1" as="geometry">
            <mxPoint x="730.1200000000001" y="910.4200000000001" as="sourcePoint" />
            <mxPoint x="730" y="982.5700000000002" as="targetPoint" />
          </mxGeometry>
        </mxCell>
        <mxCell id="6sOKHbeOXGZ0Ycy-URYJ-117" style="edgeStyle=none;rounded=0;orthogonalLoop=1;jettySize=auto;html=1;exitX=1;exitY=0.75;exitDx=0;exitDy=0;entryX=0;entryY=0.851;entryDx=0;entryDy=0;entryPerimeter=0;endArrow=none;endFill=0;strokeColor=#000000;fontColor=#FF8000;" parent="HH7DKORKCEzCAmq62gNh-101" edge="1">
          <mxGeometry relative="1" as="geometry">
            <mxPoint x="759.8700000000001" y="910.4200000000001" as="sourcePoint" />
            <mxPoint x="759.75" y="982.5700000000002" as="targetPoint" />
          </mxGeometry>
        </mxCell>
        <mxCell id="HH7DKORKCEzCAmq62gNh-65" style="edgeStyle=orthogonalEdgeStyle;rounded=0;orthogonalLoop=1;jettySize=auto;html=1;exitX=0.5;exitY=0;exitDx=0;exitDy=0;endArrow=none;endFill=0;strokeColor=#000000;fontColor=#0000CC;" edge="1" parent="HH7DKORKCEzCAmq62gNh-101" source="HH7DKORKCEzCAmq62gNh-1">
          <mxGeometry relative="1" as="geometry">
            <mxPoint x="2511.046511627907" y="1080" as="targetPoint" />
          </mxGeometry>
        </mxCell>
        <mxCell id="HH7DKORKCEzCAmq62gNh-1" value="DATA&lt;br&gt;SDRAM" style="rounded=0;whiteSpace=wrap;html=1;fontSize=18;fillColor=none;" vertex="1" parent="HH7DKORKCEzCAmq62gNh-101">
          <mxGeometry x="2441" y="1101" width="140" height="210" as="geometry" />
        </mxCell>
        <mxCell id="HH7DKORKCEzCAmq62gNh-88" style="edgeStyle=orthogonalEdgeStyle;rounded=0;orthogonalLoop=1;jettySize=auto;html=1;exitX=1;exitY=0.75;exitDx=0;exitDy=0;entryX=0;entryY=0.75;entryDx=0;entryDy=0;endArrow=none;endFill=0;strokeColor=#000000;fontColor=#0000CC;" edge="1" parent="HH7DKORKCEzCAmq62gNh-101" source="dThmx-n3adpbhEAnUbLH-144" target="HH7DKORKCEzCAmq62gNh-1">
          <mxGeometry relative="1" as="geometry">
            <Array as="points">
              <mxPoint x="2135" y="960" />
              <mxPoint x="2300" y="960" />
              <mxPoint x="2300" y="1220" />
              <mxPoint x="2441" y="1220" />
            </Array>
          </mxGeometry>
        </mxCell>
        <mxCell id="HH7DKORKCEzCAmq62gNh-76" style="edgeStyle=orthogonalEdgeStyle;rounded=0;orthogonalLoop=1;jettySize=auto;html=1;exitX=1;exitY=0.25;exitDx=0;exitDy=0;entryX=0;entryY=0.25;entryDx=0;entryDy=0;endArrow=none;endFill=0;strokeColor=#000000;fontColor=#0000CC;" edge="1" parent="HH7DKORKCEzCAmq62gNh-101" source="dThmx-n3adpbhEAnUbLH-144" target="HH7DKORKCEzCAmq62gNh-1">
          <mxGeometry relative="1" as="geometry">
            <Array as="points">
              <mxPoint x="2135" y="928" />
              <mxPoint x="2340" y="928" />
              <mxPoint x="2340" y="1154" />
            </Array>
          </mxGeometry>
        </mxCell>
        <mxCell id="HH7DKORKCEzCAmq62gNh-62" style="edgeStyle=orthogonalEdgeStyle;rounded=0;orthogonalLoop=1;jettySize=auto;html=1;entryX=0;entryY=0.75;entryDx=0;entryDy=0;endArrow=none;endFill=0;strokeColor=#000000;fontColor=#0000CC;" edge="1" parent="HH7DKORKCEzCAmq62gNh-101" source="HH7DKORKCEzCAmq62gNh-17" target="dThmx-n3adpbhEAnUbLH-144">
          <mxGeometry relative="1" as="geometry">
            <mxPoint x="1909.995" y="977.0087905647936" as="sourcePoint" />
            <Array as="points">
              <mxPoint x="1995" y="977" />
            </Array>
          </mxGeometry>
        </mxCell>
        <mxCell id="HH7DKORKCEzCAmq62gNh-64" style="edgeStyle=orthogonalEdgeStyle;rounded=0;orthogonalLoop=1;jettySize=auto;html=1;exitX=1;exitY=0.5;exitDx=0;exitDy=0;entryX=0.25;entryY=1;entryDx=0;entryDy=0;endArrow=none;endFill=0;strokeColor=#000000;fontColor=#0000CC;" edge="1" parent="HH7DKORKCEzCAmq62gNh-101" source="HH7DKORKCEzCAmq62gNh-17" target="dThmx-n3adpbhEAnUbLH-144">
          <mxGeometry relative="1" as="geometry">
            <mxPoint x="1894.995" y="1011.375" as="sourcePoint" />
            <Array as="points">
              <mxPoint x="1885" y="1061" />
              <mxPoint x="2030" y="1061" />
            </Array>
          </mxGeometry>
        </mxCell>
        <mxCell id="HH7DKORKCEzCAmq62gNh-17" value="" style="shape=trapezoid;perimeter=trapezoidPerimeter;whiteSpace=wrap;html=1;fixedSize=1;rotation=90;fillColor=none;" vertex="1" parent="HH7DKORKCEzCAmq62gNh-101">
          <mxGeometry x="1840.25" y="962" width="88.75" height="30" as="geometry" />
        </mxCell>
        <mxCell id="6sOKHbeOXGZ0Ycy-URYJ-22" style="edgeStyle=orthogonalEdgeStyle;rounded=0;orthogonalLoop=1;jettySize=auto;html=1;entryX=0.75;entryY=1;entryDx=0;entryDy=0;endArrow=none;endFill=0;" parent="HH7DKORKCEzCAmq62gNh-101" source="9u0KMjUZt_Quz6K7kKN--93" target="HH7DKORKCEzCAmq62gNh-17" edge="1">
          <mxGeometry relative="1" as="geometry">
            <Array as="points">
              <mxPoint x="1620" y="999" />
              <mxPoint x="1620" y="999" />
            </Array>
            <mxPoint x="1857.62" y="1263.5" as="targetPoint" />
          </mxGeometry>
        </mxCell>
        <mxCell id="6sOKHbeOXGZ0Ycy-URYJ-30" style="edgeStyle=orthogonalEdgeStyle;rounded=0;orthogonalLoop=1;jettySize=auto;html=1;entryX=0.5;entryY=1;entryDx=0;entryDy=0;endArrow=none;endFill=0;strokeColor=#000000;" parent="HH7DKORKCEzCAmq62gNh-101" source="9u0KMjUZt_Quz6K7kKN--186" target="HH7DKORKCEzCAmq62gNh-17" edge="1">
          <mxGeometry relative="1" as="geometry">
            <Array as="points">
              <mxPoint x="2880" y="811" />
              <mxPoint x="2880" y="651" />
              <mxPoint x="1770" y="651" />
              <mxPoint x="1770" y="977" />
            </Array>
            <mxPoint x="1890.225" y="963.2125000000001" as="targetPoint" />
          </mxGeometry>
        </mxCell>
        <mxCell id="HH7DKORKCEzCAmq62gNh-74" style="edgeStyle=orthogonalEdgeStyle;rounded=0;orthogonalLoop=1;jettySize=auto;html=1;entryX=0.25;entryY=1;entryDx=0;entryDy=0;endArrow=none;endFill=0;strokeColor=#000000;fontColor=#0000CC;exitX=1;exitY=0.5;exitDx=0;exitDy=0;" edge="1" parent="HH7DKORKCEzCAmq62gNh-101" source="HH7DKORKCEzCAmq62gNh-1" target="HH7DKORKCEzCAmq62gNh-17">
          <mxGeometry relative="1" as="geometry">
            <Array as="points">
              <mxPoint x="2930" y="1206" />
              <mxPoint x="2930" y="601" />
              <mxPoint x="1820" y="601" />
              <mxPoint x="1820" y="955" />
            </Array>
          </mxGeometry>
        </mxCell>
        <mxCell id="HH7DKORKCEzCAmq62gNh-29" value="&lt;font style=&quot;font-size: 18px&quot;&gt;DATA_WE&lt;/font&gt;" style="edgeLabel;html=1;align=center;verticalAlign=middle;resizable=0;points=[];fontColor=#CC0000;horizontal=1;" vertex="1" connectable="0" parent="HH7DKORKCEzCAmq62gNh-101">
          <mxGeometry x="1949.3709396068457" y="898.9996068456308" as="geometry" />
        </mxCell>
        <mxCell id="HH7DKORKCEzCAmq62gNh-31" value="&lt;font style=&quot;font-size: 18px&quot; color=&quot;#4d9900&quot;&gt;FWD_D&lt;/font&gt;" style="edgeLabel;html=1;align=center;verticalAlign=middle;resizable=0;points=[];fontColor=#CC0000;horizontal=1;" vertex="1" connectable="0" parent="HH7DKORKCEzCAmq62gNh-101">
          <mxGeometry x="1959.3709396068457" y="928.5996068456308" as="geometry" />
        </mxCell>
        <mxCell id="HH7DKORKCEzCAmq62gNh-37" value="&lt;font style=&quot;font-size: 18px&quot;&gt;DATA_EN&lt;/font&gt;" style="edgeLabel;html=1;align=center;verticalAlign=middle;resizable=0;points=[];fontColor=#CC0000;horizontal=1;" vertex="1" connectable="0" parent="HH7DKORKCEzCAmq62gNh-101">
          <mxGeometry x="2065.3609708833" y="811.8008833009637" as="geometry" />
        </mxCell>
        <mxCell id="HH7DKORKCEzCAmq62gNh-55" value="&lt;font style=&quot;font-size: 18px&quot;&gt;DATA_EN&lt;/font&gt;" style="edgeLabel;html=1;align=center;verticalAlign=middle;resizable=0;points=[];fontColor=#CC0000;horizontal=1;" vertex="1" connectable="0" parent="HH7DKORKCEzCAmq62gNh-101">
          <mxGeometry x="2510.9909708833" y="1072.0008833009638" as="geometry" />
        </mxCell>
        <mxCell id="HH7DKORKCEzCAmq62gNh-61" value="&lt;font color=&quot;#ff8000&quot;&gt;&lt;span style=&quot;font-size: 18px&quot;&gt;CACHE_IN&lt;/span&gt;&lt;/font&gt;" style="edgeLabel;html=1;align=center;verticalAlign=middle;resizable=0;points=[];fontColor=#CC0000;" vertex="1" connectable="0" parent="HH7DKORKCEzCAmq62gNh-101">
          <mxGeometry x="1946.3690579918584" y="959.9999999999998" as="geometry" />
        </mxCell>
        <mxCell id="HH7DKORKCEzCAmq62gNh-63" value="&lt;font style=&quot;font-size: 18px&quot; color=&quot;#ff8000&quot;&gt;CACHE_SRC&lt;/font&gt;" style="edgeLabel;html=1;align=center;verticalAlign=middle;resizable=0;points=[];fontColor=#CC0000;" vertex="1" connectable="0" parent="HH7DKORKCEzCAmq62gNh-101">
          <mxGeometry x="1959.3680952380955" y="1073.9999999999998" as="geometry" />
        </mxCell>
        <mxCell id="HH7DKORKCEzCAmq62gNh-70" value="&lt;font color=&quot;#ff8000&quot; style=&quot;font-size: 18px&quot;&gt;DRAM_WE&lt;/font&gt;" style="edgeLabel;html=1;align=center;verticalAlign=middle;resizable=0;points=[];fontColor=#0000CC;" vertex="1" connectable="0" parent="HH7DKORKCEzCAmq62gNh-101">
          <mxGeometry x="2389" y="1134.000007695266" as="geometry" />
        </mxCell>
        <mxCell id="HH7DKORKCEzCAmq62gNh-73" value="&lt;span style=&quot;color: rgb(255 , 128 , 0) ; font-size: 18px&quot;&gt;DRAM_ADDR&lt;/span&gt;" style="edgeLabel;html=1;align=center;verticalAlign=middle;resizable=0;points=[];fontColor=#0000CC;" vertex="1" connectable="0" parent="HH7DKORKCEzCAmq62gNh-101">
          <mxGeometry x="2380" y="1170.000007695266" as="geometry" />
        </mxCell>
        <mxCell id="HH7DKORKCEzCAmq62gNh-75" value="" style="ellipse;whiteSpace=wrap;html=1;aspect=fixed;fillColor=#000000;" vertex="1" parent="HH7DKORKCEzCAmq62gNh-101">
          <mxGeometry x="2876" y="647" width="7" height="7" as="geometry" />
        </mxCell>
        <mxCell id="HH7DKORKCEzCAmq62gNh-85" style="edgeStyle=orthogonalEdgeStyle;rounded=0;orthogonalLoop=1;jettySize=auto;html=1;entryX=-0.003;entryY=0.452;entryDx=0;entryDy=0;entryPerimeter=0;endArrow=none;endFill=0;strokeColor=#000000;fontColor=#0000CC;" edge="1" parent="HH7DKORKCEzCAmq62gNh-101" source="HH7DKORKCEzCAmq62gNh-79">
          <mxGeometry relative="1" as="geometry">
            <mxPoint x="2440.5800000000004" y="1185.92" as="targetPoint" />
          </mxGeometry>
        </mxCell>
        <mxCell id="HH7DKORKCEzCAmq62gNh-79" value="" style="shape=trapezoid;perimeter=trapezoidPerimeter;whiteSpace=wrap;html=1;fixedSize=1;rotation=90;fillColor=none;" vertex="1" parent="HH7DKORKCEzCAmq62gNh-101">
          <mxGeometry x="2210" y="1170" width="78.75" height="31.8" as="geometry" />
        </mxCell>
        <mxCell id="HH7DKORKCEzCAmq62gNh-80" style="edgeStyle=orthogonalEdgeStyle;rounded=0;orthogonalLoop=1;jettySize=auto;html=1;entryX=0.75;entryY=1;entryDx=0;entryDy=0;endArrow=none;endFill=0;strokeColor=#000000;fontColor=#0000CC;" edge="1" parent="HH7DKORKCEzCAmq62gNh-101" source="dThmx-n3adpbhEAnUbLH-111" target="HH7DKORKCEzCAmq62gNh-79">
          <mxGeometry relative="1" as="geometry">
            <Array as="points">
              <mxPoint x="1720" y="791" />
              <mxPoint x="1720" y="1206" />
            </Array>
          </mxGeometry>
        </mxCell>
        <mxCell id="HH7DKORKCEzCAmq62gNh-81" value="" style="ellipse;whiteSpace=wrap;html=1;aspect=fixed;fillColor=#000000;" vertex="1" parent="HH7DKORKCEzCAmq62gNh-101">
          <mxGeometry x="1717" y="857.5" width="7" height="7" as="geometry" />
        </mxCell>
        <mxCell id="HH7DKORKCEzCAmq62gNh-82" style="edgeStyle=orthogonalEdgeStyle;rounded=0;orthogonalLoop=1;jettySize=auto;html=1;exitX=1;exitY=0.75;exitDx=0;exitDy=0;entryX=0.25;entryY=1;entryDx=0;entryDy=0;endArrow=none;endFill=0;strokeColor=#000000;fontColor=#0000CC;" edge="1" parent="HH7DKORKCEzCAmq62gNh-101" source="dThmx-n3adpbhEAnUbLH-144" target="HH7DKORKCEzCAmq62gNh-79">
          <mxGeometry relative="1" as="geometry">
            <Array as="points">
              <mxPoint x="2135" y="990" />
              <mxPoint x="2180" y="990" />
              <mxPoint x="2180" y="1166" />
            </Array>
          </mxGeometry>
        </mxCell>
        <mxCell id="HH7DKORKCEzCAmq62gNh-87" value="&lt;font style=&quot;font-size: 18px&quot; color=&quot;#ff8000&quot;&gt;DRAM_SRC&lt;/font&gt;" style="edgeLabel;html=1;align=center;verticalAlign=middle;resizable=0;points=[];fontColor=#CC0000;" vertex="1" connectable="0" parent="HH7DKORKCEzCAmq62gNh-101">
          <mxGeometry x="2169.9980952380956" y="1289.9999999999998" as="geometry" />
        </mxCell>
        <mxCell id="HH7DKORKCEzCAmq62gNh-89" value="&lt;span style=&quot;color: rgb(255 , 128 , 0) ; font-size: 18px&quot;&gt;DRAM_IN&lt;/span&gt;" style="edgeLabel;html=1;align=center;verticalAlign=middle;resizable=0;points=[];fontColor=#0000CC;" vertex="1" connectable="0" parent="HH7DKORKCEzCAmq62gNh-101">
          <mxGeometry x="2396" y="1201.800007695266" as="geometry" />
        </mxCell>
        <mxCell id="HH7DKORKCEzCAmq62gNh-90" value="&lt;font color=&quot;#ff8000&quot;&gt;&lt;span style=&quot;font-size: 18px&quot;&gt;CACHE_ADDR&lt;/span&gt;&lt;/font&gt;" style="edgeLabel;html=1;align=center;verticalAlign=middle;resizable=0;points=[];fontColor=#CC0000;" vertex="1" connectable="0" parent="HH7DKORKCEzCAmq62gNh-101">
          <mxGeometry x="1928.9990579918585" y="845.9999999999998" as="geometry" />
        </mxCell>
        <mxCell id="HH7DKORKCEzCAmq62gNh-96" value="&lt;font style=&quot;font-size: 18px&quot; color=&quot;#ff8000&quot;&gt;STALL&lt;/font&gt;" style="edgeLabel;html=1;align=center;verticalAlign=middle;resizable=0;points=[];fontColor=#CC0000;" vertex="1" connectable="0" parent="HH7DKORKCEzCAmq62gNh-101">
          <mxGeometry x="2169.9980952380956" y="854.0999999999998" as="geometry" />
        </mxCell>
        <mxCell id="HH7DKORKCEzCAmq62gNh-97" style="edgeStyle=orthogonalEdgeStyle;rounded=0;orthogonalLoop=1;jettySize=auto;html=1;exitX=1;exitY=0.25;exitDx=0;exitDy=0;endArrow=none;endFill=0;strokeColor=#000000;fontColor=#0000CC;" edge="1" parent="HH7DKORKCEzCAmq62gNh-101">
          <mxGeometry relative="1" as="geometry">
            <mxPoint x="2170" y="900" as="targetPoint" />
            <mxPoint x="2135.3599999999997" y="899.7249999999999" as="sourcePoint" />
          </mxGeometry>
        </mxCell>
        <mxCell id="HH7DKORKCEzCAmq62gNh-98" value="&lt;font style=&quot;font-size: 18px&quot; color=&quot;#ff8000&quot;&gt;MISALIGNED&lt;/font&gt;" style="edgeLabel;html=1;align=center;verticalAlign=middle;resizable=0;points=[];fontColor=#CC0000;" vertex="1" connectable="0" parent="HH7DKORKCEzCAmq62gNh-101">
          <mxGeometry x="2198.9980952380956" y="885.9999999999998" as="geometry" />
        </mxCell>
        <mxCell id="HH7DKORKCEzCAmq62gNh-99" style="edgeStyle=none;rounded=0;orthogonalLoop=1;jettySize=auto;html=1;exitX=0;exitY=0.25;exitDx=0;exitDy=0;endArrow=none;endFill=0;strokeColor=#000000;fontColor=#0000CC;" edge="1" parent="HH7DKORKCEzCAmq62gNh-101">
          <mxGeometry relative="1" as="geometry">
            <mxPoint x="1964.87" y="886.3507766990289" as="targetPoint" />
            <mxPoint x="1995.3599999999997" y="886.4350000000001" as="sourcePoint" />
          </mxGeometry>
        </mxCell>
        <mxCell id="HH7DKORKCEzCAmq62gNh-100" value="&lt;font style=&quot;font-size: 18px&quot;&gt;DMA_CTRL&lt;/font&gt;" style="edgeLabel;html=1;align=center;verticalAlign=middle;resizable=0;points=[];fontColor=#CC0000;horizontal=1;" vertex="1" connectable="0" parent="HH7DKORKCEzCAmq62gNh-101">
          <mxGeometry x="1942.3709396068457" y="872.1096068456308" as="geometry" />
        </mxCell>
        <mxCell id="HH7DKORKCEzCAmq62gNh-86" style="edgeStyle=orthogonalEdgeStyle;rounded=0;orthogonalLoop=1;jettySize=auto;html=1;exitX=0.75;exitY=1;exitDx=0;exitDy=0;entryX=1;entryY=0.5;entryDx=0;entryDy=0;endArrow=none;endFill=0;strokeColor=#000000;fontColor=#0000CC;" edge="1" parent="HH7DKORKCEzCAmq62gNh-101" source="dThmx-n3adpbhEAnUbLH-144" target="HH7DKORKCEzCAmq62gNh-79">
          <mxGeometry relative="1" as="geometry">
            <Array as="points">
              <mxPoint x="2100" y="1270" />
              <mxPoint x="2249" y="1270" />
            </Array>
          </mxGeometry>
        </mxCell>
      </root>
    </mxGraphModel>
  </diagram>
</mxfile>
